<svg xmlns="http://www.w3.org/2000/svg" width="1440" height="840" viewBox="0 0 1440 840">
<rect width="1440" height="840" fill="#0f1420"/>
<rect x="1042.0" y="225.0" width="16.0" height="16.0" rx="4" fill="#face78"/>
<rect x="1064.0" y="225.0" width="16.0" height="16.0" rx="4" fill="#face78"/>
<rect x="1086.0" y="225.0" width="16.0" height="16.0" rx="4" fill="#face78"/>
<rect x="1108.0" y="225.0" width="16.0" height="16.0" rx="4" fill="#face78"/>
<rect x="1020.0" y="247.0" width="16.0" height="16.0" rx="4" fill="#f7b86e"/>
<rect x="1042.0" y="247.0" width="16.0" height="16.0" rx="4" fill="#f7b86e"/>
<rect x="1064.0" y="247.0" width="16.0" height="16.0" rx="4" fill="#f7b86e"/>
<rect x="1086.0" y="247.0" width="16.0" height="16.0" rx="4" fill="#f7b86e"/>
<rect x="1108.0" y="247.0" width="16.0" height="16.0" rx="4" fill="#f7b86e"/>
<rect x="1130.0" y="247.0" width="16.0" height="16.0" rx="4" fill="#f7b86e"/>
<rect x="1020.0" y="269.0" width="16.0" height="16.0" rx="4" fill="#f3a264"/>
<rect x="1042.0" y="269.0" width="16.0" height="16.0" rx="4" fill="#f3a264"/>
<rect x="1064.0" y="269.0" width="16.0" height="16.0" rx="4" fill="#f3a264"/>
<rect x="1086.0" y="269.0" width="16.0" height="16.0" rx="4" fill="#f3a264"/>
<rect x="1108.0" y="269.0" width="16.0" height="16.0" rx="4" fill="#f3a264"/>
<rect x="1130.0" y="269.0" width="16.0" height="16.0" rx="4" fill="#f3a264"/>
<rect x="1042.0" y="291.0" width="16.0" height="16.0" rx="4" fill="#f08c5a"/>
<rect x="1064.0" y="291.0" width="16.0" height="16.0" rx="4" fill="#f08c5a"/>
<rect x="1086.0" y="291.0" width="16.0" height="16.0" rx="4" fill="#f08c5a"/>
<rect x="1108.0" y="291.0" width="16.0" height="16.0" rx="4" fill="#f08c5a"/>
<rect x="360.0" y="357.0" width="16.0" height="16.0" rx="4" fill="#f4f6fb"/>
<rect x="382.0" y="357.0" width="16.0" height="16.0" rx="4" fill="#f4f6fb"/>
<rect x="404.0" y="357.0" width="16.0" height="16.0" rx="4" fill="#f4f6fb"/>
<rect x="426.0" y="357.0" width="16.0" height="16.0" rx="4" fill="#f4f6fb"/>
<rect x="448.0" y="357.0" width="16.0" height="16.0" rx="4" fill="#f4f6fb"/>
<rect x="470.0" y="357.0" width="16.0" height="16.0" rx="4" fill="#f4f6fb"/>
<rect x="602.0" y="357.0" width="16.0" height="16.0" rx="4" fill="#f4f6fb"/>
<rect x="624.0" y="357.0" width="16.0" height="16.0" rx="4" fill="#f4f6fb"/>
<rect x="646.0" y="357.0" width="16.0" height="16.0" rx="4" fill="#f4f6fb"/>
<rect x="668.0" y="357.0" width="16.0" height="16.0" rx="4" fill="#f4f6fb"/>
<rect x="690.0" y="357.0" width="16.0" height="16.0" rx="4" fill="#f4f6fb"/>
<rect x="712.0" y="357.0" width="16.0" height="16.0" rx="4" fill="#f4f6fb"/>
<rect x="734.0" y="357.0" width="16.0" height="16.0" rx="4" fill="#f4f6fb"/>
<rect x="844.0" y="357.0" width="16.0" height="16.0" rx="4" fill="#f4f6fb"/>
<rect x="866.0" y="357.0" width="16.0" height="16.0" rx="4" fill="#f4f6fb"/>
<rect x="888.0" y="357.0" width="16.0" height="16.0" rx="4" fill="#f4f6fb"/>
<rect x="910.0" y="357.0" width="16.0" height="16.0" rx="4" fill="#f4f6fb"/>
<rect x="932.0" y="357.0" width="16.0" height="16.0" rx="4" fill="#f4f6fb"/>
<rect x="954.0" y="357.0" width="16.0" height="16.0" rx="4" fill="#f4f6fb"/>
<rect x="976.0" y="357.0" width="16.0" height="16.0" rx="4" fill="#f4f6fb"/>
<rect x="1064.0" y="357.0" width="16.0" height="16.0" rx="4" fill="#f4f6fb"/>
<rect x="1086.0" y="357.0" width="16.0" height="16.0" rx="4" fill="#f4f6fb"/>
<rect x="338.0" y="379.0" width="16.0" height="16.0" rx="4" fill="#ecf1fa"/>
<rect x="360.0" y="379.0" width="16.0" height="16.0" rx="4" fill="#ecf1fa"/>
<rect x="470.0" y="379.0" width="16.0" height="16.0" rx="4" fill="#ecf1fa"/>
<rect x="492.0" y="379.0" width="16.0" height="16.0" rx="4" fill="#ecf1fa"/>
<rect x="580.0" y="379.0" width="16.0" height="16.0" rx="4" fill="#ecf1fa"/>
<rect x="602.0" y="379.0" width="16.0" height="16.0" rx="4" fill="#ecf1fa"/>
<rect x="712.0" y="379.0" width="16.0" height="16.0" rx="4" fill="#ecf1fa"/>
<rect x="734.0" y="379.0" width="16.0" height="16.0" rx="4" fill="#ecf1fa"/>
<rect x="822.0" y="379.0" width="16.0" height="16.0" rx="4" fill="#ecf1fa"/>
<rect x="844.0" y="379.0" width="16.0" height="16.0" rx="4" fill="#ecf1fa"/>
<rect x="954.0" y="379.0" width="16.0" height="16.0" rx="4" fill="#ecf1fa"/>
<rect x="976.0" y="379.0" width="16.0" height="16.0" rx="4" fill="#ecf1fa"/>
<rect x="1064.0" y="379.0" width="16.0" height="16.0" rx="4" fill="#ecf1fa"/>
<rect x="1086.0" y="379.0" width="16.0" height="16.0" rx="4" fill="#ecf1fa"/>
<rect x="338.0" y="401.0" width="16.0" height="16.0" rx="4" fill="#e4ecfa"/>
<rect x="360.0" y="401.0" width="16.0" height="16.0" rx="4" fill="#e4ecfa"/>
<rect x="470.0" y="401.0" width="16.0" height="16.0" rx="4" fill="#e4ecfa"/>
<rect x="492.0" y="401.0" width="16.0" height="16.0" rx="4" fill="#e4ecfa"/>
<rect x="580.0" y="401.0" width="16.0" height="16.0" rx="4" fill="#e4ecfa"/>
<rect x="602.0" y="401.0" width="16.0" height="16.0" rx="4" fill="#e4ecfa"/>
<rect x="712.0" y="401.0" width="16.0" height="16.0" rx="4" fill="#e4ecfa"/>
<rect x="734.0" y="401.0" width="16.0" height="16.0" rx="4" fill="#e4ecfa"/>
<rect x="822.0" y="401.0" width="16.0" height="16.0" rx="4" fill="#e4ecfa"/>
<rect x="844.0" y="401.0" width="16.0" height="16.0" rx="4" fill="#e4ecfa"/>
<rect x="954.0" y="401.0" width="16.0" height="16.0" rx="4" fill="#e4ecfa"/>
<rect x="976.0" y="401.0" width="16.0" height="16.0" rx="4" fill="#e4ecfa"/>
<rect x="1064.0" y="401.0" width="16.0" height="16.0" rx="4" fill="#e4ecfa"/>
<rect x="1086.0" y="401.0" width="16.0" height="16.0" rx="4" fill="#e4ecfa"/>
<rect x="338.0" y="423.0" width="16.0" height="16.0" rx="4" fill="#dbe7f9"/>
<rect x="360.0" y="423.0" width="16.0" height="16.0" rx="4" fill="#dbe7f9"/>
<rect x="470.0" y="423.0" width="16.0" height="16.0" rx="4" fill="#dbe7f9"/>
<rect x="492.0" y="423.0" width="16.0" height="16.0" rx="4" fill="#dbe7f9"/>
<rect x="580.0" y="423.0" width="16.0" height="16.0" rx="4" fill="#dbe7f9"/>
<rect x="602.0" y="423.0" width="16.0" height="16.0" rx="4" fill="#dbe7f9"/>
<rect x="712.0" y="423.0" width="16.0" height="16.0" rx="4" fill="#dbe7f9"/>
<rect x="734.0" y="423.0" width="16.0" height="16.0" rx="4" fill="#dbe7f9"/>
<rect x="822.0" y="423.0" width="16.0" height="16.0" rx="4" fill="#dbe7f9"/>
<rect x="844.0" y="423.0" width="16.0" height="16.0" rx="4" fill="#dbe7f9"/>
<rect x="954.0" y="423.0" width="16.0" height="16.0" rx="4" fill="#dbe7f9"/>
<rect x="976.0" y="423.0" width="16.0" height="16.0" rx="4" fill="#dbe7f9"/>
<rect x="1064.0" y="423.0" width="16.0" height="16.0" rx="4" fill="#dbe7f9"/>
<rect x="1086.0" y="423.0" width="16.0" height="16.0" rx="4" fill="#dbe7f9"/>
<rect x="338.0" y="445.0" width="16.0" height="16.0" rx="4" fill="#d3e2f8"/>
<rect x="360.0" y="445.0" width="16.0" height="16.0" rx="4" fill="#d3e2f8"/>
<rect x="470.0" y="445.0" width="16.0" height="16.0" rx="4" fill="#d3e2f8"/>
<rect x="492.0" y="445.0" width="16.0" height="16.0" rx="4" fill="#d3e2f8"/>
<rect x="580.0" y="445.0" width="16.0" height="16.0" rx="4" fill="#d3e2f8"/>
<rect x="602.0" y="445.0" width="16.0" height="16.0" rx="4" fill="#d3e2f8"/>
<rect x="712.0" y="445.0" width="16.0" height="16.0" rx="4" fill="#d3e2f8"/>
<rect x="734.0" y="445.0" width="16.0" height="16.0" rx="4" fill="#d3e2f8"/>
<rect x="822.0" y="445.0" width="16.0" height="16.0" rx="4" fill="#d3e2f8"/>
<rect x="844.0" y="445.0" width="16.0" height="16.0" rx="4" fill="#d3e2f8"/>
<rect x="954.0" y="445.0" width="16.0" height="16.0" rx="4" fill="#d3e2f8"/>
<rect x="976.0" y="445.0" width="16.0" height="16.0" rx="4" fill="#d3e2f8"/>
<rect x="1064.0" y="445.0" width="16.0" height="16.0" rx="4" fill="#d3e2f8"/>
<rect x="1086.0" y="445.0" width="16.0" height="16.0" rx="4" fill="#d3e2f8"/>
<rect x="338.0" y="467.0" width="16.0" height="16.0" rx="4" fill="#cbdcf8"/>
<rect x="360.0" y="467.0" width="16.0" height="16.0" rx="4" fill="#cbdcf8"/>
<rect x="470.0" y="467.0" width="16.0" height="16.0" rx="4" fill="#cbdcf8"/>
<rect x="492.0" y="467.0" width="16.0" height="16.0" rx="4" fill="#cbdcf8"/>
<rect x="580.0" y="467.0" width="16.0" height="16.0" rx="4" fill="#cbdcf8"/>
<rect x="602.0" y="467.0" width="16.0" height="16.0" rx="4" fill="#cbdcf8"/>
<rect x="712.0" y="467.0" width="16.0" height="16.0" rx="4" fill="#cbdcf8"/>
<rect x="734.0" y="467.0" width="16.0" height="16.0" rx="4" fill="#cbdcf8"/>
<rect x="822.0" y="467.0" width="16.0" height="16.0" rx="4" fill="#cbdcf8"/>
<rect x="844.0" y="467.0" width="16.0" height="16.0" rx="4" fill="#cbdcf8"/>
<rect x="954.0" y="467.0" width="16.0" height="16.0" rx="4" fill="#cbdcf8"/>
<rect x="976.0" y="467.0" width="16.0" height="16.0" rx="4" fill="#cbdcf8"/>
<rect x="1064.0" y="467.0" width="16.0" height="16.0" rx="4" fill="#cbdcf8"/>
<rect x="1086.0" y="467.0" width="16.0" height="16.0" rx="4" fill="#cbdcf8"/>
<rect x="338.0" y="489.0" width="16.0" height="16.0" rx="4" fill="#c3d7f7"/>
<rect x="360.0" y="489.0" width="16.0" height="16.0" rx="4" fill="#c3d7f7"/>
<rect x="470.0" y="489.0" width="16.0" height="16.0" rx="4" fill="#c3d7f7"/>
<rect x="492.0" y="489.0" width="16.0" height="16.0" rx="4" fill="#c3d7f7"/>
<rect x="580.0" y="489.0" width="16.0" height="16.0" rx="4" fill="#c3d7f7"/>
<rect x="602.0" y="489.0" width="16.0" height="16.0" rx="4" fill="#c3d7f7"/>
<rect x="712.0" y="489.0" width="16.0" height="16.0" rx="4" fill="#c3d7f7"/>
<rect x="734.0" y="489.0" width="16.0" height="16.0" rx="4" fill="#c3d7f7"/>
<rect x="822.0" y="489.0" width="16.0" height="16.0" rx="4" fill="#c3d7f7"/>
<rect x="844.0" y="489.0" width="16.0" height="16.0" rx="4" fill="#c3d7f7"/>
<rect x="954.0" y="489.0" width="16.0" height="16.0" rx="4" fill="#c3d7f7"/>
<rect x="976.0" y="489.0" width="16.0" height="16.0" rx="4" fill="#c3d7f7"/>
<rect x="1064.0" y="489.0" width="16.0" height="16.0" rx="4" fill="#c3d7f7"/>
<rect x="1086.0" y="489.0" width="16.0" height="16.0" rx="4" fill="#c3d7f7"/>
<rect x="338.0" y="511.0" width="16.0" height="16.0" rx="4" fill="#bad2f6"/>
<rect x="360.0" y="511.0" width="16.0" height="16.0" rx="4" fill="#bad2f6"/>
<rect x="470.0" y="511.0" width="16.0" height="16.0" rx="4" fill="#bad2f6"/>
<rect x="492.0" y="511.0" width="16.0" height="16.0" rx="4" fill="#bad2f6"/>
<rect x="580.0" y="511.0" width="16.0" height="16.0" rx="4" fill="#bad2f6"/>
<rect x="602.0" y="511.0" width="16.0" height="16.0" rx="4" fill="#bad2f6"/>
<rect x="712.0" y="511.0" width="16.0" height="16.0" rx="4" fill="#bad2f6"/>
<rect x="734.0" y="511.0" width="16.0" height="16.0" rx="4" fill="#bad2f6"/>
<rect x="822.0" y="511.0" width="16.0" height="16.0" rx="4" fill="#bad2f6"/>
<rect x="844.0" y="511.0" width="16.0" height="16.0" rx="4" fill="#bad2f6"/>
<rect x="954.0" y="511.0" width="16.0" height="16.0" rx="4" fill="#bad2f6"/>
<rect x="976.0" y="511.0" width="16.0" height="16.0" rx="4" fill="#bad2f6"/>
<rect x="1064.0" y="511.0" width="16.0" height="16.0" rx="4" fill="#bad2f6"/>
<rect x="1086.0" y="511.0" width="16.0" height="16.0" rx="4" fill="#bad2f6"/>
<rect x="338.0" y="533.0" width="16.0" height="16.0" rx="4" fill="#b2cdf6"/>
<rect x="360.0" y="533.0" width="16.0" height="16.0" rx="4" fill="#b2cdf6"/>
<rect x="470.0" y="533.0" width="16.0" height="16.0" rx="4" fill="#b2cdf6"/>
<rect x="492.0" y="533.0" width="16.0" height="16.0" rx="4" fill="#b2cdf6"/>
<rect x="580.0" y="533.0" width="16.0" height="16.0" rx="4" fill="#b2cdf6"/>
<rect x="602.0" y="533.0" width="16.0" height="16.0" rx="4" fill="#b2cdf6"/>
<rect x="712.0" y="533.0" width="16.0" height="16.0" rx="4" fill="#b2cdf6"/>
<rect x="734.0" y="533.0" width="16.0" height="16.0" rx="4" fill="#b2cdf6"/>
<rect x="822.0" y="533.0" width="16.0" height="16.0" rx="4" fill="#b2cdf6"/>
<rect x="844.0" y="533.0" width="16.0" height="16.0" rx="4" fill="#b2cdf6"/>
<rect x="954.0" y="533.0" width="16.0" height="16.0" rx="4" fill="#b2cdf6"/>
<rect x="976.0" y="533.0" width="16.0" height="16.0" rx="4" fill="#b2cdf6"/>
<rect x="1064.0" y="533.0" width="16.0" height="16.0" rx="4" fill="#b2cdf6"/>
<rect x="1086.0" y="533.0" width="16.0" height="16.0" rx="4" fill="#b2cdf6"/>
<rect x="338.0" y="555.0" width="16.0" height="16.0" rx="4" fill="#aac8f5"/>
<rect x="360.0" y="555.0" width="16.0" height="16.0" rx="4" fill="#aac8f5"/>
<rect x="470.0" y="555.0" width="16.0" height="16.0" rx="4" fill="#aac8f5"/>
<rect x="492.0" y="555.0" width="16.0" height="16.0" rx="4" fill="#aac8f5"/>
<rect x="602.0" y="555.0" width="16.0" height="16.0" rx="4" fill="#aac8f5"/>
<rect x="624.0" y="555.0" width="16.0" height="16.0" rx="4" fill="#aac8f5"/>
<rect x="646.0" y="555.0" width="16.0" height="16.0" rx="4" fill="#aac8f5"/>
<rect x="668.0" y="555.0" width="16.0" height="16.0" rx="4" fill="#aac8f5"/>
<rect x="690.0" y="555.0" width="16.0" height="16.0" rx="4" fill="#aac8f5"/>
<rect x="712.0" y="555.0" width="16.0" height="16.0" rx="4" fill="#aac8f5"/>
<rect x="734.0" y="555.0" width="16.0" height="16.0" rx="4" fill="#aac8f5"/>
<rect x="844.0" y="555.0" width="16.0" height="16.0" rx="4" fill="#aac8f5"/>
<rect x="866.0" y="555.0" width="16.0" height="16.0" rx="4" fill="#aac8f5"/>
<rect x="888.0" y="555.0" width="16.0" height="16.0" rx="4" fill="#aac8f5"/>
<rect x="910.0" y="555.0" width="16.0" height="16.0" rx="4" fill="#aac8f5"/>
<rect x="932.0" y="555.0" width="16.0" height="16.0" rx="4" fill="#aac8f5"/>
<rect x="954.0" y="555.0" width="16.0" height="16.0" rx="4" fill="#aac8f5"/>
<rect x="976.0" y="555.0" width="16.0" height="16.0" rx="4" fill="#aac8f5"/>
<rect x="1064.0" y="555.0" width="16.0" height="16.0" rx="4" fill="#aac8f5"/>
<rect x="1086.0" y="555.0" width="16.0" height="16.0" rx="4" fill="#aac8f5"/>
<rect x="162.0" y="577.0" width="16.0" height="16.0" rx="4" fill="#78a0dc"/>
<rect x="184.0" y="577.0" width="16.0" height="16.0" rx="4" fill="#78a0dc"/>
<rect x="206.0" y="577.0" width="16.0" height="16.0" rx="4" fill="#78a0dc"/>
<rect x="228.0" y="577.0" width="16.0" height="16.0" rx="4" fill="#78a0dc"/>
<rect x="250.0" y="577.0" width="16.0" height="16.0" rx="4" fill="#78a0dc"/>
<rect x="272.0" y="577.0" width="16.0" height="16.0" rx="4" fill="#78a0dc"/>
<rect x="294.0" y="577.0" width="16.0" height="16.0" rx="4" fill="#78a0dc"/>
<rect x="316.0" y="577.0" width="16.0" height="16.0" rx="4" fill="#78a0dc"/>
<rect x="338.0" y="577.0" width="16.0" height="16.0" rx="4" fill="#78a0dc"/>
<rect x="360.0" y="577.0" width="16.0" height="16.0" rx="4" fill="#78a0dc"/>
<rect x="382.0" y="577.0" width="16.0" height="16.0" rx="4" fill="#78a0dc"/>
<rect x="404.0" y="577.0" width="16.0" height="16.0" rx="4" fill="#78a0dc"/>
<rect x="426.0" y="577.0" width="16.0" height="16.0" rx="4" fill="#78a0dc"/>
<rect x="448.0" y="577.0" width="16.0" height="16.0" rx="4" fill="#78a0dc"/>
<rect x="470.0" y="577.0" width="16.0" height="16.0" rx="4" fill="#78a0dc"/>
<rect x="492.0" y="577.0" width="16.0" height="16.0" rx="4" fill="#78a0dc"/>
<rect x="514.0" y="577.0" width="16.0" height="16.0" rx="4" fill="#78a0dc"/>
<rect x="536.0" y="577.0" width="16.0" height="16.0" rx="4" fill="#78a0dc"/>
<rect x="558.0" y="577.0" width="16.0" height="16.0" rx="4" fill="#78a0dc"/>
<rect x="580.0" y="577.0" width="16.0" height="16.0" rx="4" fill="#78a0dc"/>
<rect x="602.0" y="577.0" width="16.0" height="16.0" rx="4" fill="#78a0dc"/>
<rect x="624.0" y="577.0" width="16.0" height="16.0" rx="4" fill="#78a0dc"/>
<rect x="646.0" y="577.0" width="16.0" height="16.0" rx="4" fill="#78a0dc"/>
<rect x="668.0" y="577.0" width="16.0" height="16.0" rx="4" fill="#78a0dc"/>
<rect x="690.0" y="577.0" width="16.0" height="16.0" rx="4" fill="#78a0dc"/>
<rect x="712.0" y="577.0" width="16.0" height="16.0" rx="4" fill="#78a0dc"/>
<rect x="734.0" y="577.0" width="16.0" height="16.0" rx="4" fill="#78a0dc"/>
<rect x="756.0" y="577.0" width="16.0" height="16.0" rx="4" fill="#78a0dc"/>
<rect x="778.0" y="577.0" width="16.0" height="16.0" rx="4" fill="#78a0dc"/>
<rect x="800.0" y="577.0" width="16.0" height="16.0" rx="4" fill="#78a0dc"/>
<rect x="822.0" y="577.0" width="16.0" height="16.0" rx="4" fill="#78a0dc"/>
<rect x="844.0" y="577.0" width="16.0" height="16.0" rx="4" fill="#78a0dc"/>
<rect x="866.0" y="577.0" width="16.0" height="16.0" rx="4" fill="#78a0dc"/>
<rect x="888.0" y="577.0" width="16.0" height="16.0" rx="4" fill="#78a0dc"/>
<rect x="910.0" y="577.0" width="16.0" height="16.0" rx="4" fill="#78a0dc"/>
<rect x="932.0" y="577.0" width="16.0" height="16.0" rx="4" fill="#78a0dc"/>
<rect x="954.0" y="577.0" width="16.0" height="16.0" rx="4" fill="#78a0dc"/>
<rect x="976.0" y="577.0" width="16.0" height="16.0" rx="4" fill="#78a0dc"/>
<rect x="998.0" y="577.0" width="16.0" height="16.0" rx="4" fill="#78a0dc"/>
<rect x="1020.0" y="577.0" width="16.0" height="16.0" rx="4" fill="#78a0dc"/>
<rect x="1042.0" y="577.0" width="16.0" height="16.0" rx="4" fill="#78a0dc"/>
<rect x="1064.0" y="577.0" width="16.0" height="16.0" rx="4" fill="#78a0dc"/>
<rect x="1086.0" y="577.0" width="16.0" height="16.0" rx="4" fill="#78a0dc"/>
<rect x="1108.0" y="577.0" width="16.0" height="16.0" rx="4" fill="#78a0dc"/>
<rect x="1130.0" y="577.0" width="16.0" height="16.0" rx="4" fill="#78a0dc"/>
<rect x="1152.0" y="577.0" width="16.0" height="16.0" rx="4" fill="#78a0dc"/>
<rect x="1174.0" y="577.0" width="16.0" height="16.0" rx="4" fill="#78a0dc"/>
<rect x="1196.0" y="577.0" width="16.0" height="16.0" rx="4" fill="#78a0dc"/>
<rect x="1218.0" y="577.0" width="16.0" height="16.0" rx="4" fill="#78a0dc"/>
<rect x="1240.0" y="577.0" width="16.0" height="16.0" rx="4" fill="#78a0dc"/>
<rect x="1262.0" y="577.0" width="16.0" height="16.0" rx="4" fill="#78a0dc"/>
<rect x="954.0" y="599.0" width="16.0" height="16.0" rx="4" fill="#4669a5"/>
<rect x="976.0" y="599.0" width="16.0" height="16.0" rx="4" fill="#4669a5"/>
<rect x="822.0" y="621.0" width="16.0" height="16.0" rx="4" fill="#3b598f"/>
<rect x="844.0" y="621.0" width="16.0" height="16.0" rx="4" fill="#3b598f"/>
<rect x="954.0" y="621.0" width="16.0" height="16.0" rx="4" fill="#3b598f"/>
<rect x="976.0" y="621.0" width="16.0" height="16.0" rx="4" fill="#3b598f"/>
<rect x="998.0" y="621.0" width="16.0" height="16.0" rx="4" fill="#be7855"/>
<rect x="1020.0" y="621.0" width="16.0" height="16.0" rx="4" fill="#be7855"/>
<rect x="1042.0" y="621.0" width="16.0" height="16.0" rx="4" fill="#be7855"/>
<rect x="1064.0" y="621.0" width="16.0" height="16.0" rx="4" fill="#be7855"/>
<rect x="1086.0" y="621.0" width="16.0" height="16.0" rx="4" fill="#be7855"/>
<rect x="1108.0" y="621.0" width="16.0" height="16.0" rx="4" fill="#be7855"/>
<rect x="1130.0" y="621.0" width="16.0" height="16.0" rx="4" fill="#be7855"/>
<rect x="1152.0" y="621.0" width="16.0" height="16.0" rx="4" fill="#be7855"/>
<rect x="844.0" y="643.0" width="16.0" height="16.0" rx="4" fill="#314a7a"/>
<rect x="866.0" y="643.0" width="16.0" height="16.0" rx="4" fill="#314a7a"/>
<rect x="888.0" y="643.0" width="16.0" height="16.0" rx="4" fill="#314a7a"/>
<rect x="910.0" y="643.0" width="16.0" height="16.0" rx="4" fill="#314a7a"/>
<rect x="932.0" y="643.0" width="16.0" height="16.0" rx="4" fill="#314a7a"/>
<rect x="954.0" y="643.0" width="16.0" height="16.0" rx="4" fill="#314a7a"/>
<rect x="1042.0" y="643.0" width="16.0" height="16.0" rx="4" fill="#6e505a"/>
<rect x="1064.0" y="643.0" width="16.0" height="16.0" rx="4" fill="#6e505a"/>
<rect x="1086.0" y="643.0" width="16.0" height="16.0" rx="4" fill="#6e505a"/>
<rect x="1108.0" y="643.0" width="16.0" height="16.0" rx="4" fill="#6e505a"/>
</svg>
