<svg xmlns="http://www.w3.org/2000/svg" width="1440" height="840" viewBox="0 0 1440 840">
<rect width="1440" height="840" fill="#0f1420"/>
<rect x="120" y="218.0" width="390" height="404.0" rx="85.8" fill="#141b2c"/><rect x="280.0" y="308.0" width="14.0" height="14.0" rx="0" fill="#60a5fa"/>
<rect x="294.0" y="308.0" width="14.0" height="14.0" rx="0" fill="#60a5fa"/>
<rect x="308.0" y="308.0" width="14.0" height="14.0" rx="0" fill="#60a5fa"/>
<rect x="322.0" y="308.0" width="14.0" height="14.0" rx="0" fill="#60a5fa"/>
<rect x="252.0" y="322.0" width="14.0" height="14.0" rx="0" fill="#60a5fa"/>
<rect x="266.0" y="322.0" width="14.0" height="14.0" rx="0" fill="#60a5fa"/>
<rect x="280.0" y="322.0" width="14.0" height="14.0" rx="0" fill="#60a5fa"/>
<rect x="294.0" y="322.0" width="14.0" height="14.0" rx="0" fill="#60a5fa"/>
<rect x="308.0" y="322.0" width="14.0" height="14.0" rx="0" fill="#60a5fa"/>
<rect x="322.0" y="322.0" width="14.0" height="14.0" rx="0" fill="#60a5fa"/>
<rect x="336.0" y="322.0" width="14.0" height="14.0" rx="0" fill="#60a5fa"/>
<rect x="350.0" y="322.0" width="14.0" height="14.0" rx="0" fill="#60a5fa"/>
<rect x="238.0" y="336.0" width="14.0" height="14.0" rx="0" fill="#60a5fa"/>
<rect x="252.0" y="336.0" width="14.0" height="14.0" rx="0" fill="#60a5fa"/>
<rect x="266.0" y="336.0" width="14.0" height="14.0" rx="0" fill="#60a5fa"/>
<rect x="280.0" y="336.0" width="14.0" height="14.0" rx="0" fill="#60a5fa"/>
<rect x="294.0" y="336.0" width="14.0" height="14.0" rx="0" fill="#60a5fa"/>
<rect x="308.0" y="336.0" width="14.0" height="14.0" rx="0" fill="#60a5fa"/>
<rect x="322.0" y="336.0" width="14.0" height="14.0" rx="0" fill="#60a5fa"/>
<rect x="336.0" y="336.0" width="14.0" height="14.0" rx="0" fill="#60a5fa"/>
<rect x="350.0" y="336.0" width="14.0" height="14.0" rx="0" fill="#60a5fa"/>
<rect x="364.0" y="336.0" width="14.0" height="14.0" rx="0" fill="#60a5fa"/>
<rect x="238.0" y="350.0" width="14.0" height="14.0" rx="0" fill="#60a5fa"/>
<rect x="252.0" y="350.0" width="14.0" height="14.0" rx="0" fill="#60a5fa"/>
<rect x="266.0" y="350.0" width="14.0" height="14.0" rx="0" fill="#60a5fa"/>
<rect x="280.0" y="350.0" width="14.0" height="14.0" rx="0" fill="#60a5fa"/>
<rect x="294.0" y="350.0" width="14.0" height="14.0" rx="0" fill="#60a5fa"/>
<rect x="308.0" y="350.0" width="14.0" height="14.0" rx="0" fill="#60a5fa"/>
<rect x="322.0" y="350.0" width="14.0" height="14.0" rx="0" fill="#60a5fa"/>
<rect x="336.0" y="350.0" width="14.0" height="14.0" rx="0" fill="#60a5fa"/>
<rect x="350.0" y="350.0" width="14.0" height="14.0" rx="0" fill="#60a5fa"/>
<rect x="364.0" y="350.0" width="14.0" height="14.0" rx="0" fill="#60a5fa"/>
<rect x="238.0" y="364.0" width="14.0" height="14.0" rx="0" fill="#60a5fa"/>
<rect x="252.0" y="364.0" width="14.0" height="14.0" rx="0" fill="#60a5fa"/>
<rect x="266.0" y="364.0" width="14.0" height="14.0" rx="0" fill="#60a5fa"/>
<rect x="280.0" y="364.0" width="14.0" height="14.0" rx="0" fill="#60a5fa"/>
<rect x="294.0" y="364.0" width="14.0" height="14.0" rx="0" fill="#60a5fa"/>
<rect x="308.0" y="364.0" width="14.0" height="14.0" rx="0" fill="#60a5fa"/>
<rect x="322.0" y="364.0" width="14.0" height="14.0" rx="0" fill="#60a5fa"/>
<rect x="336.0" y="364.0" width="14.0" height="14.0" rx="0" fill="#60a5fa"/>
<rect x="350.0" y="364.0" width="14.0" height="14.0" rx="0" fill="#60a5fa"/>
<rect x="364.0" y="364.0" width="14.0" height="14.0" rx="0" fill="#60a5fa"/>
<rect x="238.0" y="378.0" width="14.0" height="14.0" rx="0" fill="#60a5fa"/>
<rect x="252.0" y="378.0" width="14.0" height="14.0" rx="0" fill="#60a5fa"/>
<rect x="266.0" y="378.0" width="14.0" height="14.0" rx="0" fill="#60a5fa"/>
<rect x="280.0" y="378.0" width="14.0" height="14.0" rx="0" fill="#60a5fa"/>
<rect x="294.0" y="378.0" width="14.0" height="14.0" rx="0" fill="#60a5fa"/>
<rect x="308.0" y="378.0" width="14.0" height="14.0" rx="0" fill="#60a5fa"/>
<rect x="322.0" y="378.0" width="14.0" height="14.0" rx="0" fill="#60a5fa"/>
<rect x="336.0" y="378.0" width="14.0" height="14.0" rx="0" fill="#60a5fa"/>
<rect x="350.0" y="378.0" width="14.0" height="14.0" rx="0" fill="#60a5fa"/>
<rect x="364.0" y="378.0" width="14.0" height="14.0" rx="0" fill="#60a5fa"/>
<rect x="238.0" y="392.0" width="14.0" height="14.0" rx="0" fill="#60a5fa"/>
<rect x="252.0" y="392.0" width="14.0" height="14.0" rx="0" fill="#60a5fa"/>
<rect x="266.0" y="392.0" width="14.0" height="14.0" rx="0" fill="#60a5fa"/>
<rect x="280.0" y="392.0" width="14.0" height="14.0" rx="0" fill="#60a5fa"/>
<rect x="294.0" y="392.0" width="14.0" height="14.0" rx="0" fill="#60a5fa"/>
<rect x="308.0" y="392.0" width="14.0" height="14.0" rx="0" fill="#60a5fa"/>
<rect x="322.0" y="392.0" width="14.0" height="14.0" rx="0" fill="#60a5fa"/>
<rect x="336.0" y="392.0" width="14.0" height="14.0" rx="0" fill="#60a5fa"/>
<rect x="350.0" y="392.0" width="14.0" height="14.0" rx="0" fill="#60a5fa"/>
<rect x="364.0" y="392.0" width="14.0" height="14.0" rx="0" fill="#60a5fa"/>
<rect x="238.0" y="406.0" width="14.0" height="14.0" rx="0" fill="#60a5fa"/>
<rect x="252.0" y="406.0" width="14.0" height="14.0" rx="0" fill="#60a5fa"/>
<rect x="266.0" y="406.0" width="14.0" height="14.0" rx="0" fill="#60a5fa"/>
<rect x="280.0" y="406.0" width="14.0" height="14.0" rx="0" fill="#60a5fa"/>
<rect x="294.0" y="406.0" width="14.0" height="14.0" rx="0" fill="#60a5fa"/>
<rect x="308.0" y="406.0" width="14.0" height="14.0" rx="0" fill="#60a5fa"/>
<rect x="322.0" y="406.0" width="14.0" height="14.0" rx="0" fill="#60a5fa"/>
<rect x="336.0" y="406.0" width="14.0" height="14.0" rx="0" fill="#60a5fa"/>
<rect x="350.0" y="406.0" width="14.0" height="14.0" rx="0" fill="#60a5fa"/>
<rect x="364.0" y="406.0" width="14.0" height="14.0" rx="0" fill="#60a5fa"/>
<rect x="252.0" y="420.0" width="14.0" height="14.0" rx="0" fill="#60a5fa"/>
<rect x="266.0" y="420.0" width="14.0" height="14.0" rx="0" fill="#60a5fa"/>
<rect x="280.0" y="420.0" width="14.0" height="14.0" rx="0" fill="#60a5fa"/>
<rect x="294.0" y="420.0" width="14.0" height="14.0" rx="0" fill="#60a5fa"/>
<rect x="308.0" y="420.0" width="14.0" height="14.0" rx="0" fill="#60a5fa"/>
<rect x="322.0" y="420.0" width="14.0" height="14.0" rx="0" fill="#60a5fa"/>
<rect x="336.0" y="420.0" width="14.0" height="14.0" rx="0" fill="#60a5fa"/>
<rect x="350.0" y="420.0" width="14.0" height="14.0" rx="0" fill="#60a5fa"/>
<rect x="280.0" y="434.0" width="14.0" height="14.0" rx="0" fill="#60a5fa"/>
<rect x="294.0" y="434.0" width="14.0" height="14.0" rx="0" fill="#60a5fa"/>
<rect x="308.0" y="434.0" width="14.0" height="14.0" rx="0" fill="#60a5fa"/>
<rect x="322.0" y="434.0" width="14.0" height="14.0" rx="0" fill="#60a5fa"/>
<rect x="182.0" y="462.0" width="14.0" height="14.0" rx="0" fill="#e6e8ef"/>
<rect x="196.0" y="462.0" width="14.0" height="14.0" rx="0" fill="#e6e8ef"/>
<rect x="210.0" y="462.0" width="14.0" height="14.0" rx="0" fill="#e6e8ef"/>
<rect x="224.0" y="462.0" width="14.0" height="14.0" rx="0" fill="#e6e8ef"/>
<rect x="238.0" y="462.0" width="14.0" height="14.0" rx="0" fill="#e6e8ef"/>
<rect x="252.0" y="462.0" width="14.0" height="14.0" rx="0" fill="#e6e8ef"/>
<rect x="266.0" y="462.0" width="14.0" height="14.0" rx="0" fill="#e6e8ef"/>
<rect x="280.0" y="462.0" width="14.0" height="14.0" rx="0" fill="#e6e8ef"/>
<rect x="294.0" y="462.0" width="14.0" height="14.0" rx="0" fill="#e6e8ef"/>
<rect x="308.0" y="462.0" width="14.0" height="14.0" rx="0" fill="#e6e8ef"/>
<rect x="322.0" y="462.0" width="14.0" height="14.0" rx="0" fill="#e6e8ef"/>
<rect x="336.0" y="462.0" width="14.0" height="14.0" rx="0" fill="#e6e8ef"/>
<rect x="350.0" y="462.0" width="14.0" height="14.0" rx="0" fill="#e6e8ef"/>
<rect x="364.0" y="462.0" width="14.0" height="14.0" rx="0" fill="#e6e8ef"/>
<rect x="378.0" y="462.0" width="14.0" height="14.0" rx="0" fill="#e6e8ef"/>
<rect x="392.0" y="462.0" width="14.0" height="14.0" rx="0" fill="#e6e8ef"/>
<rect x="406.0" y="462.0" width="14.0" height="14.0" rx="0" fill="#e6e8ef"/>
<rect x="420.0" y="462.0" width="14.0" height="14.0" rx="0" fill="#e6e8ef"/>
<rect x="434.0" y="462.0" width="14.0" height="14.0" rx="0" fill="#e6e8ef"/>
<rect x="182.0" y="476.0" width="14.0" height="14.0" rx="0" fill="#e6e8ef"/>
<rect x="196.0" y="476.0" width="14.0" height="14.0" rx="0" fill="#e6e8ef"/>
<rect x="210.0" y="476.0" width="14.0" height="14.0" rx="0" fill="#e6e8ef"/>
<rect x="224.0" y="476.0" width="14.0" height="14.0" rx="0" fill="#e6e8ef"/>
<rect x="238.0" y="476.0" width="14.0" height="14.0" rx="0" fill="#e6e8ef"/>
<rect x="252.0" y="476.0" width="14.0" height="14.0" rx="0" fill="#e6e8ef"/>
<rect x="266.0" y="476.0" width="14.0" height="14.0" rx="0" fill="#e6e8ef"/>
<rect x="280.0" y="476.0" width="14.0" height="14.0" rx="0" fill="#e6e8ef"/>
<rect x="294.0" y="476.0" width="14.0" height="14.0" rx="0" fill="#e6e8ef"/>
<rect x="308.0" y="476.0" width="14.0" height="14.0" rx="0" fill="#e6e8ef"/>
<rect x="322.0" y="476.0" width="14.0" height="14.0" rx="0" fill="#e6e8ef"/>
<rect x="336.0" y="476.0" width="14.0" height="14.0" rx="0" fill="#e6e8ef"/>
<rect x="350.0" y="476.0" width="14.0" height="14.0" rx="0" fill="#e6e8ef"/>
<rect x="364.0" y="476.0" width="14.0" height="14.0" rx="0" fill="#e6e8ef"/>
<rect x="378.0" y="476.0" width="14.0" height="14.0" rx="0" fill="#e6e8ef"/>
<rect x="392.0" y="476.0" width="14.0" height="14.0" rx="0" fill="#e6e8ef"/>
<rect x="406.0" y="476.0" width="14.0" height="14.0" rx="0" fill="#e6e8ef"/>
<rect x="420.0" y="476.0" width="14.0" height="14.0" rx="0" fill="#e6e8ef"/>
<rect x="434.0" y="476.0" width="14.0" height="14.0" rx="0" fill="#e6e8ef"/>
<rect x="182.0" y="490.0" width="14.0" height="14.0" rx="0" fill="#e6e8ef"/>
<rect x="196.0" y="490.0" width="14.0" height="14.0" rx="0" fill="#e6e8ef"/>
<rect x="210.0" y="490.0" width="14.0" height="14.0" rx="0" fill="#e6e8ef"/>
<rect x="224.0" y="490.0" width="14.0" height="14.0" rx="0" fill="#e6e8ef"/>
<rect x="238.0" y="490.0" width="14.0" height="14.0" rx="0" fill="#e6e8ef"/>
<rect x="252.0" y="490.0" width="14.0" height="14.0" rx="0" fill="#e6e8ef"/>
<rect x="266.0" y="490.0" width="14.0" height="14.0" rx="0" fill="#e6e8ef"/>
<rect x="280.0" y="490.0" width="14.0" height="14.0" rx="0" fill="#e6e8ef"/>
<rect x="294.0" y="490.0" width="14.0" height="14.0" rx="0" fill="#e6e8ef"/>
<rect x="308.0" y="490.0" width="14.0" height="14.0" rx="0" fill="#e6e8ef"/>
<rect x="322.0" y="490.0" width="14.0" height="14.0" rx="0" fill="#e6e8ef"/>
<rect x="336.0" y="490.0" width="14.0" height="14.0" rx="0" fill="#e6e8ef"/>
<rect x="350.0" y="490.0" width="14.0" height="14.0" rx="0" fill="#e6e8ef"/>
<rect x="364.0" y="490.0" width="14.0" height="14.0" rx="0" fill="#e6e8ef"/>
<rect x="378.0" y="490.0" width="14.0" height="14.0" rx="0" fill="#e6e8ef"/>
<rect x="392.0" y="490.0" width="14.0" height="14.0" rx="0" fill="#e6e8ef"/>
<rect x="406.0" y="490.0" width="14.0" height="14.0" rx="0" fill="#e6e8ef"/>
<rect x="420.0" y="490.0" width="14.0" height="14.0" rx="0" fill="#e6e8ef"/>
<rect x="434.0" y="490.0" width="14.0" height="14.0" rx="0" fill="#e6e8ef"/>
<rect x="252.0" y="532.0" width="14.0" height="14.0" rx="0" fill="#2e4670"/>
<rect x="266.0" y="532.0" width="14.0" height="14.0" rx="0" fill="#2e4670"/>
<rect x="280.0" y="532.0" width="14.0" height="14.0" rx="0" fill="#2e4670"/>
<rect x="294.0" y="532.0" width="14.0" height="14.0" rx="0" fill="#2e4670"/>
<rect x="308.0" y="532.0" width="14.0" height="14.0" rx="0" fill="#2e4670"/>
<rect x="322.0" y="532.0" width="14.0" height="14.0" rx="0" fill="#2e4670"/>
<rect x="336.0" y="532.0" width="14.0" height="14.0" rx="0" fill="#2e4670"/>
<rect x="350.0" y="532.0" width="14.0" height="14.0" rx="0" fill="#2e4670"/>
<rect x="364.0" y="532.0" width="14.0" height="14.0" rx="0" fill="#2e4670"/>
<rect x="252.0" y="546.0" width="14.0" height="14.0" rx="0" fill="#2e4670"/>
<rect x="266.0" y="546.0" width="14.0" height="14.0" rx="0" fill="#2e4670"/>
<rect x="280.0" y="546.0" width="14.0" height="14.0" rx="0" fill="#2e4670"/>
<rect x="294.0" y="546.0" width="14.0" height="14.0" rx="0" fill="#2e4670"/>
<rect x="308.0" y="546.0" width="14.0" height="14.0" rx="0" fill="#2e4670"/>
<rect x="322.0" y="546.0" width="14.0" height="14.0" rx="0" fill="#2e4670"/>
<rect x="336.0" y="546.0" width="14.0" height="14.0" rx="0" fill="#2e4670"/>
<rect x="350.0" y="546.0" width="14.0" height="14.0" rx="0" fill="#2e4670"/>
<rect x="364.0" y="546.0" width="14.0" height="14.0" rx="0" fill="#2e4670"/><text x="315.0" y="662.0" text-anchor="middle" font-family="Plus Jakarta Sans" font-size="24" fill="#8a93a6">390px</text><rect x="570" y="283.0" width="265" height="274.0" rx="58.3" fill="#141b2c"/><rect x="680.0" y="348.0" width="9.0" height="9.0" rx="0" fill="#60a5fa"/>
<rect x="689.0" y="348.0" width="9.0" height="9.0" rx="0" fill="#60a5fa"/>
<rect x="698.0" y="348.0" width="9.0" height="9.0" rx="0" fill="#60a5fa"/>
<rect x="707.0" y="348.0" width="9.0" height="9.0" rx="0" fill="#60a5fa"/>
<rect x="662.0" y="357.0" width="9.0" height="9.0" rx="0" fill="#60a5fa"/>
<rect x="671.0" y="357.0" width="9.0" height="9.0" rx="0" fill="#60a5fa"/>
<rect x="680.0" y="357.0" width="9.0" height="9.0" rx="0" fill="#60a5fa"/>
<rect x="689.0" y="357.0" width="9.0" height="9.0" rx="0" fill="#60a5fa"/>
<rect x="698.0" y="357.0" width="9.0" height="9.0" rx="0" fill="#60a5fa"/>
<rect x="707.0" y="357.0" width="9.0" height="9.0" rx="0" fill="#60a5fa"/>
<rect x="716.0" y="357.0" width="9.0" height="9.0" rx="0" fill="#60a5fa"/>
<rect x="725.0" y="357.0" width="9.0" height="9.0" rx="0" fill="#60a5fa"/>
<rect x="653.0" y="366.0" width="9.0" height="9.0" rx="0" fill="#60a5fa"/>
<rect x="662.0" y="366.0" width="9.0" height="9.0" rx="0" fill="#60a5fa"/>
<rect x="671.0" y="366.0" width="9.0" height="9.0" rx="0" fill="#60a5fa"/>
<rect x="680.0" y="366.0" width="9.0" height="9.0" rx="0" fill="#60a5fa"/>
<rect x="689.0" y="366.0" width="9.0" height="9.0" rx="0" fill="#60a5fa"/>
<rect x="698.0" y="366.0" width="9.0" height="9.0" rx="0" fill="#60a5fa"/>
<rect x="707.0" y="366.0" width="9.0" height="9.0" rx="0" fill="#60a5fa"/>
<rect x="716.0" y="366.0" width="9.0" height="9.0" rx="0" fill="#60a5fa"/>
<rect x="725.0" y="366.0" width="9.0" height="9.0" rx="0" fill="#60a5fa"/>
<rect x="734.0" y="366.0" width="9.0" height="9.0" rx="0" fill="#60a5fa"/>
<rect x="653.0" y="375.0" width="9.0" height="9.0" rx="0" fill="#60a5fa"/>
<rect x="662.0" y="375.0" width="9.0" height="9.0" rx="0" fill="#60a5fa"/>
<rect x="671.0" y="375.0" width="9.0" height="9.0" rx="0" fill="#60a5fa"/>
<rect x="680.0" y="375.0" width="9.0" height="9.0" rx="0" fill="#60a5fa"/>
<rect x="689.0" y="375.0" width="9.0" height="9.0" rx="0" fill="#60a5fa"/>
<rect x="698.0" y="375.0" width="9.0" height="9.0" rx="0" fill="#60a5fa"/>
<rect x="707.0" y="375.0" width="9.0" height="9.0" rx="0" fill="#60a5fa"/>
<rect x="716.0" y="375.0" width="9.0" height="9.0" rx="0" fill="#60a5fa"/>
<rect x="725.0" y="375.0" width="9.0" height="9.0" rx="0" fill="#60a5fa"/>
<rect x="734.0" y="375.0" width="9.0" height="9.0" rx="0" fill="#60a5fa"/>
<rect x="653.0" y="384.0" width="9.0" height="9.0" rx="0" fill="#60a5fa"/>
<rect x="662.0" y="384.0" width="9.0" height="9.0" rx="0" fill="#60a5fa"/>
<rect x="671.0" y="384.0" width="9.0" height="9.0" rx="0" fill="#60a5fa"/>
<rect x="680.0" y="384.0" width="9.0" height="9.0" rx="0" fill="#60a5fa"/>
<rect x="689.0" y="384.0" width="9.0" height="9.0" rx="0" fill="#60a5fa"/>
<rect x="698.0" y="384.0" width="9.0" height="9.0" rx="0" fill="#60a5fa"/>
<rect x="707.0" y="384.0" width="9.0" height="9.0" rx="0" fill="#60a5fa"/>
<rect x="716.0" y="384.0" width="9.0" height="9.0" rx="0" fill="#60a5fa"/>
<rect x="725.0" y="384.0" width="9.0" height="9.0" rx="0" fill="#60a5fa"/>
<rect x="734.0" y="384.0" width="9.0" height="9.0" rx="0" fill="#60a5fa"/>
<rect x="653.0" y="393.0" width="9.0" height="9.0" rx="0" fill="#60a5fa"/>
<rect x="662.0" y="393.0" width="9.0" height="9.0" rx="0" fill="#60a5fa"/>
<rect x="671.0" y="393.0" width="9.0" height="9.0" rx="0" fill="#60a5fa"/>
<rect x="680.0" y="393.0" width="9.0" height="9.0" rx="0" fill="#60a5fa"/>
<rect x="689.0" y="393.0" width="9.0" height="9.0" rx="0" fill="#60a5fa"/>
<rect x="698.0" y="393.0" width="9.0" height="9.0" rx="0" fill="#60a5fa"/>
<rect x="707.0" y="393.0" width="9.0" height="9.0" rx="0" fill="#60a5fa"/>
<rect x="716.0" y="393.0" width="9.0" height="9.0" rx="0" fill="#60a5fa"/>
<rect x="725.0" y="393.0" width="9.0" height="9.0" rx="0" fill="#60a5fa"/>
<rect x="734.0" y="393.0" width="9.0" height="9.0" rx="0" fill="#60a5fa"/>
<rect x="653.0" y="402.0" width="9.0" height="9.0" rx="0" fill="#60a5fa"/>
<rect x="662.0" y="402.0" width="9.0" height="9.0" rx="0" fill="#60a5fa"/>
<rect x="671.0" y="402.0" width="9.0" height="9.0" rx="0" fill="#60a5fa"/>
<rect x="680.0" y="402.0" width="9.0" height="9.0" rx="0" fill="#60a5fa"/>
<rect x="689.0" y="402.0" width="9.0" height="9.0" rx="0" fill="#60a5fa"/>
<rect x="698.0" y="402.0" width="9.0" height="9.0" rx="0" fill="#60a5fa"/>
<rect x="707.0" y="402.0" width="9.0" height="9.0" rx="0" fill="#60a5fa"/>
<rect x="716.0" y="402.0" width="9.0" height="9.0" rx="0" fill="#60a5fa"/>
<rect x="725.0" y="402.0" width="9.0" height="9.0" rx="0" fill="#60a5fa"/>
<rect x="734.0" y="402.0" width="9.0" height="9.0" rx="0" fill="#60a5fa"/>
<rect x="653.0" y="411.0" width="9.0" height="9.0" rx="0" fill="#60a5fa"/>
<rect x="662.0" y="411.0" width="9.0" height="9.0" rx="0" fill="#60a5fa"/>
<rect x="671.0" y="411.0" width="9.0" height="9.0" rx="0" fill="#60a5fa"/>
<rect x="680.0" y="411.0" width="9.0" height="9.0" rx="0" fill="#60a5fa"/>
<rect x="689.0" y="411.0" width="9.0" height="9.0" rx="0" fill="#60a5fa"/>
<rect x="698.0" y="411.0" width="9.0" height="9.0" rx="0" fill="#60a5fa"/>
<rect x="707.0" y="411.0" width="9.0" height="9.0" rx="0" fill="#60a5fa"/>
<rect x="716.0" y="411.0" width="9.0" height="9.0" rx="0" fill="#60a5fa"/>
<rect x="725.0" y="411.0" width="9.0" height="9.0" rx="0" fill="#60a5fa"/>
<rect x="734.0" y="411.0" width="9.0" height="9.0" rx="0" fill="#60a5fa"/>
<rect x="662.0" y="420.0" width="9.0" height="9.0" rx="0" fill="#60a5fa"/>
<rect x="671.0" y="420.0" width="9.0" height="9.0" rx="0" fill="#60a5fa"/>
<rect x="680.0" y="420.0" width="9.0" height="9.0" rx="0" fill="#60a5fa"/>
<rect x="689.0" y="420.0" width="9.0" height="9.0" rx="0" fill="#60a5fa"/>
<rect x="698.0" y="420.0" width="9.0" height="9.0" rx="0" fill="#60a5fa"/>
<rect x="707.0" y="420.0" width="9.0" height="9.0" rx="0" fill="#60a5fa"/>
<rect x="716.0" y="420.0" width="9.0" height="9.0" rx="0" fill="#60a5fa"/>
<rect x="725.0" y="420.0" width="9.0" height="9.0" rx="0" fill="#60a5fa"/>
<rect x="680.0" y="429.0" width="9.0" height="9.0" rx="0" fill="#60a5fa"/>
<rect x="689.0" y="429.0" width="9.0" height="9.0" rx="0" fill="#60a5fa"/>
<rect x="698.0" y="429.0" width="9.0" height="9.0" rx="0" fill="#60a5fa"/>
<rect x="707.0" y="429.0" width="9.0" height="9.0" rx="0" fill="#60a5fa"/>
<rect x="617.0" y="447.0" width="9.0" height="9.0" rx="0" fill="#e6e8ef"/>
<rect x="626.0" y="447.0" width="9.0" height="9.0" rx="0" fill="#e6e8ef"/>
<rect x="635.0" y="447.0" width="9.0" height="9.0" rx="0" fill="#e6e8ef"/>
<rect x="644.0" y="447.0" width="9.0" height="9.0" rx="0" fill="#e6e8ef"/>
<rect x="653.0" y="447.0" width="9.0" height="9.0" rx="0" fill="#e6e8ef"/>
<rect x="662.0" y="447.0" width="9.0" height="9.0" rx="0" fill="#e6e8ef"/>
<rect x="671.0" y="447.0" width="9.0" height="9.0" rx="0" fill="#e6e8ef"/>
<rect x="680.0" y="447.0" width="9.0" height="9.0" rx="0" fill="#e6e8ef"/>
<rect x="689.0" y="447.0" width="9.0" height="9.0" rx="0" fill="#e6e8ef"/>
<rect x="698.0" y="447.0" width="9.0" height="9.0" rx="0" fill="#e6e8ef"/>
<rect x="707.0" y="447.0" width="9.0" height="9.0" rx="0" fill="#e6e8ef"/>
<rect x="716.0" y="447.0" width="9.0" height="9.0" rx="0" fill="#e6e8ef"/>
<rect x="725.0" y="447.0" width="9.0" height="9.0" rx="0" fill="#e6e8ef"/>
<rect x="734.0" y="447.0" width="9.0" height="9.0" rx="0" fill="#e6e8ef"/>
<rect x="743.0" y="447.0" width="9.0" height="9.0" rx="0" fill="#e6e8ef"/>
<rect x="752.0" y="447.0" width="9.0" height="9.0" rx="0" fill="#e6e8ef"/>
<rect x="761.0" y="447.0" width="9.0" height="9.0" rx="0" fill="#e6e8ef"/>
<rect x="770.0" y="447.0" width="9.0" height="9.0" rx="0" fill="#e6e8ef"/>
<rect x="779.0" y="447.0" width="9.0" height="9.0" rx="0" fill="#e6e8ef"/>
<rect x="617.0" y="456.0" width="9.0" height="9.0" rx="0" fill="#e6e8ef"/>
<rect x="626.0" y="456.0" width="9.0" height="9.0" rx="0" fill="#e6e8ef"/>
<rect x="635.0" y="456.0" width="9.0" height="9.0" rx="0" fill="#e6e8ef"/>
<rect x="644.0" y="456.0" width="9.0" height="9.0" rx="0" fill="#e6e8ef"/>
<rect x="653.0" y="456.0" width="9.0" height="9.0" rx="0" fill="#e6e8ef"/>
<rect x="662.0" y="456.0" width="9.0" height="9.0" rx="0" fill="#e6e8ef"/>
<rect x="671.0" y="456.0" width="9.0" height="9.0" rx="0" fill="#e6e8ef"/>
<rect x="680.0" y="456.0" width="9.0" height="9.0" rx="0" fill="#e6e8ef"/>
<rect x="689.0" y="456.0" width="9.0" height="9.0" rx="0" fill="#e6e8ef"/>
<rect x="698.0" y="456.0" width="9.0" height="9.0" rx="0" fill="#e6e8ef"/>
<rect x="707.0" y="456.0" width="9.0" height="9.0" rx="0" fill="#e6e8ef"/>
<rect x="716.0" y="456.0" width="9.0" height="9.0" rx="0" fill="#e6e8ef"/>
<rect x="725.0" y="456.0" width="9.0" height="9.0" rx="0" fill="#e6e8ef"/>
<rect x="734.0" y="456.0" width="9.0" height="9.0" rx="0" fill="#e6e8ef"/>
<rect x="743.0" y="456.0" width="9.0" height="9.0" rx="0" fill="#e6e8ef"/>
<rect x="752.0" y="456.0" width="9.0" height="9.0" rx="0" fill="#e6e8ef"/>
<rect x="761.0" y="456.0" width="9.0" height="9.0" rx="0" fill="#e6e8ef"/>
<rect x="770.0" y="456.0" width="9.0" height="9.0" rx="0" fill="#e6e8ef"/>
<rect x="779.0" y="456.0" width="9.0" height="9.0" rx="0" fill="#e6e8ef"/>
<rect x="617.0" y="465.0" width="9.0" height="9.0" rx="0" fill="#e6e8ef"/>
<rect x="626.0" y="465.0" width="9.0" height="9.0" rx="0" fill="#e6e8ef"/>
<rect x="635.0" y="465.0" width="9.0" height="9.0" rx="0" fill="#e6e8ef"/>
<rect x="644.0" y="465.0" width="9.0" height="9.0" rx="0" fill="#e6e8ef"/>
<rect x="653.0" y="465.0" width="9.0" height="9.0" rx="0" fill="#e6e8ef"/>
<rect x="662.0" y="465.0" width="9.0" height="9.0" rx="0" fill="#e6e8ef"/>
<rect x="671.0" y="465.0" width="9.0" height="9.0" rx="0" fill="#e6e8ef"/>
<rect x="680.0" y="465.0" width="9.0" height="9.0" rx="0" fill="#e6e8ef"/>
<rect x="689.0" y="465.0" width="9.0" height="9.0" rx="0" fill="#e6e8ef"/>
<rect x="698.0" y="465.0" width="9.0" height="9.0" rx="0" fill="#e6e8ef"/>
<rect x="707.0" y="465.0" width="9.0" height="9.0" rx="0" fill="#e6e8ef"/>
<rect x="716.0" y="465.0" width="9.0" height="9.0" rx="0" fill="#e6e8ef"/>
<rect x="725.0" y="465.0" width="9.0" height="9.0" rx="0" fill="#e6e8ef"/>
<rect x="734.0" y="465.0" width="9.0" height="9.0" rx="0" fill="#e6e8ef"/>
<rect x="743.0" y="465.0" width="9.0" height="9.0" rx="0" fill="#e6e8ef"/>
<rect x="752.0" y="465.0" width="9.0" height="9.0" rx="0" fill="#e6e8ef"/>
<rect x="761.0" y="465.0" width="9.0" height="9.0" rx="0" fill="#e6e8ef"/>
<rect x="770.0" y="465.0" width="9.0" height="9.0" rx="0" fill="#e6e8ef"/>
<rect x="779.0" y="465.0" width="9.0" height="9.0" rx="0" fill="#e6e8ef"/>
<rect x="662.0" y="492.0" width="9.0" height="9.0" rx="0" fill="#2e4670"/>
<rect x="671.0" y="492.0" width="9.0" height="9.0" rx="0" fill="#2e4670"/>
<rect x="680.0" y="492.0" width="9.0" height="9.0" rx="0" fill="#2e4670"/>
<rect x="689.0" y="492.0" width="9.0" height="9.0" rx="0" fill="#2e4670"/>
<rect x="698.0" y="492.0" width="9.0" height="9.0" rx="0" fill="#2e4670"/>
<rect x="707.0" y="492.0" width="9.0" height="9.0" rx="0" fill="#2e4670"/>
<rect x="716.0" y="492.0" width="9.0" height="9.0" rx="0" fill="#2e4670"/>
<rect x="725.0" y="492.0" width="9.0" height="9.0" rx="0" fill="#2e4670"/>
<rect x="734.0" y="492.0" width="9.0" height="9.0" rx="0" fill="#2e4670"/>
<rect x="662.0" y="501.0" width="9.0" height="9.0" rx="0" fill="#2e4670"/>
<rect x="671.0" y="501.0" width="9.0" height="9.0" rx="0" fill="#2e4670"/>
<rect x="680.0" y="501.0" width="9.0" height="9.0" rx="0" fill="#2e4670"/>
<rect x="689.0" y="501.0" width="9.0" height="9.0" rx="0" fill="#2e4670"/>
<rect x="698.0" y="501.0" width="9.0" height="9.0" rx="0" fill="#2e4670"/>
<rect x="707.0" y="501.0" width="9.0" height="9.0" rx="0" fill="#2e4670"/>
<rect x="716.0" y="501.0" width="9.0" height="9.0" rx="0" fill="#2e4670"/>
<rect x="725.0" y="501.0" width="9.0" height="9.0" rx="0" fill="#2e4670"/>
<rect x="734.0" y="501.0" width="9.0" height="9.0" rx="0" fill="#2e4670"/><text x="702.5" y="597.0" text-anchor="middle" font-family="Plus Jakarta Sans" font-size="24" fill="#8a93a6">265px</text><rect x="895" y="322.0" width="190" height="196.0" rx="41.8" fill="#141b2c"/><rect x="975.0" y="372.0" width="6.0" height="6.0" rx="0" fill="#60a5fa"/>
<rect x="981.0" y="372.0" width="6.0" height="6.0" rx="0" fill="#60a5fa"/>
<rect x="987.0" y="372.0" width="6.0" height="6.0" rx="0" fill="#60a5fa"/>
<rect x="993.0" y="372.0" width="6.0" height="6.0" rx="0" fill="#60a5fa"/>
<rect x="963.0" y="378.0" width="6.0" height="6.0" rx="0" fill="#60a5fa"/>
<rect x="969.0" y="378.0" width="6.0" height="6.0" rx="0" fill="#60a5fa"/>
<rect x="975.0" y="378.0" width="6.0" height="6.0" rx="0" fill="#60a5fa"/>
<rect x="981.0" y="378.0" width="6.0" height="6.0" rx="0" fill="#60a5fa"/>
<rect x="987.0" y="378.0" width="6.0" height="6.0" rx="0" fill="#60a5fa"/>
<rect x="993.0" y="378.0" width="6.0" height="6.0" rx="0" fill="#60a5fa"/>
<rect x="999.0" y="378.0" width="6.0" height="6.0" rx="0" fill="#60a5fa"/>
<rect x="1005.0" y="378.0" width="6.0" height="6.0" rx="0" fill="#60a5fa"/>
<rect x="957.0" y="384.0" width="6.0" height="6.0" rx="0" fill="#60a5fa"/>
<rect x="963.0" y="384.0" width="6.0" height="6.0" rx="0" fill="#60a5fa"/>
<rect x="969.0" y="384.0" width="6.0" height="6.0" rx="0" fill="#60a5fa"/>
<rect x="975.0" y="384.0" width="6.0" height="6.0" rx="0" fill="#60a5fa"/>
<rect x="981.0" y="384.0" width="6.0" height="6.0" rx="0" fill="#60a5fa"/>
<rect x="987.0" y="384.0" width="6.0" height="6.0" rx="0" fill="#60a5fa"/>
<rect x="993.0" y="384.0" width="6.0" height="6.0" rx="0" fill="#60a5fa"/>
<rect x="999.0" y="384.0" width="6.0" height="6.0" rx="0" fill="#60a5fa"/>
<rect x="1005.0" y="384.0" width="6.0" height="6.0" rx="0" fill="#60a5fa"/>
<rect x="1011.0" y="384.0" width="6.0" height="6.0" rx="0" fill="#60a5fa"/>
<rect x="957.0" y="390.0" width="6.0" height="6.0" rx="0" fill="#60a5fa"/>
<rect x="963.0" y="390.0" width="6.0" height="6.0" rx="0" fill="#60a5fa"/>
<rect x="969.0" y="390.0" width="6.0" height="6.0" rx="0" fill="#60a5fa"/>
<rect x="975.0" y="390.0" width="6.0" height="6.0" rx="0" fill="#60a5fa"/>
<rect x="981.0" y="390.0" width="6.0" height="6.0" rx="0" fill="#60a5fa"/>
<rect x="987.0" y="390.0" width="6.0" height="6.0" rx="0" fill="#60a5fa"/>
<rect x="993.0" y="390.0" width="6.0" height="6.0" rx="0" fill="#60a5fa"/>
<rect x="999.0" y="390.0" width="6.0" height="6.0" rx="0" fill="#60a5fa"/>
<rect x="1005.0" y="390.0" width="6.0" height="6.0" rx="0" fill="#60a5fa"/>
<rect x="1011.0" y="390.0" width="6.0" height="6.0" rx="0" fill="#60a5fa"/>
<rect x="957.0" y="396.0" width="6.0" height="6.0" rx="0" fill="#60a5fa"/>
<rect x="963.0" y="396.0" width="6.0" height="6.0" rx="0" fill="#60a5fa"/>
<rect x="969.0" y="396.0" width="6.0" height="6.0" rx="0" fill="#60a5fa"/>
<rect x="975.0" y="396.0" width="6.0" height="6.0" rx="0" fill="#60a5fa"/>
<rect x="981.0" y="396.0" width="6.0" height="6.0" rx="0" fill="#60a5fa"/>
<rect x="987.0" y="396.0" width="6.0" height="6.0" rx="0" fill="#60a5fa"/>
<rect x="993.0" y="396.0" width="6.0" height="6.0" rx="0" fill="#60a5fa"/>
<rect x="999.0" y="396.0" width="6.0" height="6.0" rx="0" fill="#60a5fa"/>
<rect x="1005.0" y="396.0" width="6.0" height="6.0" rx="0" fill="#60a5fa"/>
<rect x="1011.0" y="396.0" width="6.0" height="6.0" rx="0" fill="#60a5fa"/>
<rect x="957.0" y="402.0" width="6.0" height="6.0" rx="0" fill="#60a5fa"/>
<rect x="963.0" y="402.0" width="6.0" height="6.0" rx="0" fill="#60a5fa"/>
<rect x="969.0" y="402.0" width="6.0" height="6.0" rx="0" fill="#60a5fa"/>
<rect x="975.0" y="402.0" width="6.0" height="6.0" rx="0" fill="#60a5fa"/>
<rect x="981.0" y="402.0" width="6.0" height="6.0" rx="0" fill="#60a5fa"/>
<rect x="987.0" y="402.0" width="6.0" height="6.0" rx="0" fill="#60a5fa"/>
<rect x="993.0" y="402.0" width="6.0" height="6.0" rx="0" fill="#60a5fa"/>
<rect x="999.0" y="402.0" width="6.0" height="6.0" rx="0" fill="#60a5fa"/>
<rect x="1005.0" y="402.0" width="6.0" height="6.0" rx="0" fill="#60a5fa"/>
<rect x="1011.0" y="402.0" width="6.0" height="6.0" rx="0" fill="#60a5fa"/>
<rect x="957.0" y="408.0" width="6.0" height="6.0" rx="0" fill="#60a5fa"/>
<rect x="963.0" y="408.0" width="6.0" height="6.0" rx="0" fill="#60a5fa"/>
<rect x="969.0" y="408.0" width="6.0" height="6.0" rx="0" fill="#60a5fa"/>
<rect x="975.0" y="408.0" width="6.0" height="6.0" rx="0" fill="#60a5fa"/>
<rect x="981.0" y="408.0" width="6.0" height="6.0" rx="0" fill="#60a5fa"/>
<rect x="987.0" y="408.0" width="6.0" height="6.0" rx="0" fill="#60a5fa"/>
<rect x="993.0" y="408.0" width="6.0" height="6.0" rx="0" fill="#60a5fa"/>
<rect x="999.0" y="408.0" width="6.0" height="6.0" rx="0" fill="#60a5fa"/>
<rect x="1005.0" y="408.0" width="6.0" height="6.0" rx="0" fill="#60a5fa"/>
<rect x="1011.0" y="408.0" width="6.0" height="6.0" rx="0" fill="#60a5fa"/>
<rect x="957.0" y="414.0" width="6.0" height="6.0" rx="0" fill="#60a5fa"/>
<rect x="963.0" y="414.0" width="6.0" height="6.0" rx="0" fill="#60a5fa"/>
<rect x="969.0" y="414.0" width="6.0" height="6.0" rx="0" fill="#60a5fa"/>
<rect x="975.0" y="414.0" width="6.0" height="6.0" rx="0" fill="#60a5fa"/>
<rect x="981.0" y="414.0" width="6.0" height="6.0" rx="0" fill="#60a5fa"/>
<rect x="987.0" y="414.0" width="6.0" height="6.0" rx="0" fill="#60a5fa"/>
<rect x="993.0" y="414.0" width="6.0" height="6.0" rx="0" fill="#60a5fa"/>
<rect x="999.0" y="414.0" width="6.0" height="6.0" rx="0" fill="#60a5fa"/>
<rect x="1005.0" y="414.0" width="6.0" height="6.0" rx="0" fill="#60a5fa"/>
<rect x="1011.0" y="414.0" width="6.0" height="6.0" rx="0" fill="#60a5fa"/>
<rect x="963.0" y="420.0" width="6.0" height="6.0" rx="0" fill="#60a5fa"/>
<rect x="969.0" y="420.0" width="6.0" height="6.0" rx="0" fill="#60a5fa"/>
<rect x="975.0" y="420.0" width="6.0" height="6.0" rx="0" fill="#60a5fa"/>
<rect x="981.0" y="420.0" width="6.0" height="6.0" rx="0" fill="#60a5fa"/>
<rect x="987.0" y="420.0" width="6.0" height="6.0" rx="0" fill="#60a5fa"/>
<rect x="993.0" y="420.0" width="6.0" height="6.0" rx="0" fill="#60a5fa"/>
<rect x="999.0" y="420.0" width="6.0" height="6.0" rx="0" fill="#60a5fa"/>
<rect x="1005.0" y="420.0" width="6.0" height="6.0" rx="0" fill="#60a5fa"/>
<rect x="975.0" y="426.0" width="6.0" height="6.0" rx="0" fill="#60a5fa"/>
<rect x="981.0" y="426.0" width="6.0" height="6.0" rx="0" fill="#60a5fa"/>
<rect x="987.0" y="426.0" width="6.0" height="6.0" rx="0" fill="#60a5fa"/>
<rect x="993.0" y="426.0" width="6.0" height="6.0" rx="0" fill="#60a5fa"/>
<rect x="933.0" y="438.0" width="6.0" height="6.0" rx="0" fill="#e6e8ef"/>
<rect x="939.0" y="438.0" width="6.0" height="6.0" rx="0" fill="#e6e8ef"/>
<rect x="945.0" y="438.0" width="6.0" height="6.0" rx="0" fill="#e6e8ef"/>
<rect x="951.0" y="438.0" width="6.0" height="6.0" rx="0" fill="#e6e8ef"/>
<rect x="957.0" y="438.0" width="6.0" height="6.0" rx="0" fill="#e6e8ef"/>
<rect x="963.0" y="438.0" width="6.0" height="6.0" rx="0" fill="#e6e8ef"/>
<rect x="969.0" y="438.0" width="6.0" height="6.0" rx="0" fill="#e6e8ef"/>
<rect x="975.0" y="438.0" width="6.0" height="6.0" rx="0" fill="#e6e8ef"/>
<rect x="981.0" y="438.0" width="6.0" height="6.0" rx="0" fill="#e6e8ef"/>
<rect x="987.0" y="438.0" width="6.0" height="6.0" rx="0" fill="#e6e8ef"/>
<rect x="993.0" y="438.0" width="6.0" height="6.0" rx="0" fill="#e6e8ef"/>
<rect x="999.0" y="438.0" width="6.0" height="6.0" rx="0" fill="#e6e8ef"/>
<rect x="1005.0" y="438.0" width="6.0" height="6.0" rx="0" fill="#e6e8ef"/>
<rect x="1011.0" y="438.0" width="6.0" height="6.0" rx="0" fill="#e6e8ef"/>
<rect x="1017.0" y="438.0" width="6.0" height="6.0" rx="0" fill="#e6e8ef"/>
<rect x="1023.0" y="438.0" width="6.0" height="6.0" rx="0" fill="#e6e8ef"/>
<rect x="1029.0" y="438.0" width="6.0" height="6.0" rx="0" fill="#e6e8ef"/>
<rect x="1035.0" y="438.0" width="6.0" height="6.0" rx="0" fill="#e6e8ef"/>
<rect x="1041.0" y="438.0" width="6.0" height="6.0" rx="0" fill="#e6e8ef"/>
<rect x="933.0" y="444.0" width="6.0" height="6.0" rx="0" fill="#e6e8ef"/>
<rect x="939.0" y="444.0" width="6.0" height="6.0" rx="0" fill="#e6e8ef"/>
<rect x="945.0" y="444.0" width="6.0" height="6.0" rx="0" fill="#e6e8ef"/>
<rect x="951.0" y="444.0" width="6.0" height="6.0" rx="0" fill="#e6e8ef"/>
<rect x="957.0" y="444.0" width="6.0" height="6.0" rx="0" fill="#e6e8ef"/>
<rect x="963.0" y="444.0" width="6.0" height="6.0" rx="0" fill="#e6e8ef"/>
<rect x="969.0" y="444.0" width="6.0" height="6.0" rx="0" fill="#e6e8ef"/>
<rect x="975.0" y="444.0" width="6.0" height="6.0" rx="0" fill="#e6e8ef"/>
<rect x="981.0" y="444.0" width="6.0" height="6.0" rx="0" fill="#e6e8ef"/>
<rect x="987.0" y="444.0" width="6.0" height="6.0" rx="0" fill="#e6e8ef"/>
<rect x="993.0" y="444.0" width="6.0" height="6.0" rx="0" fill="#e6e8ef"/>
<rect x="999.0" y="444.0" width="6.0" height="6.0" rx="0" fill="#e6e8ef"/>
<rect x="1005.0" y="444.0" width="6.0" height="6.0" rx="0" fill="#e6e8ef"/>
<rect x="1011.0" y="444.0" width="6.0" height="6.0" rx="0" fill="#e6e8ef"/>
<rect x="1017.0" y="444.0" width="6.0" height="6.0" rx="0" fill="#e6e8ef"/>
<rect x="1023.0" y="444.0" width="6.0" height="6.0" rx="0" fill="#e6e8ef"/>
<rect x="1029.0" y="444.0" width="6.0" height="6.0" rx="0" fill="#e6e8ef"/>
<rect x="1035.0" y="444.0" width="6.0" height="6.0" rx="0" fill="#e6e8ef"/>
<rect x="1041.0" y="444.0" width="6.0" height="6.0" rx="0" fill="#e6e8ef"/>
<rect x="933.0" y="450.0" width="6.0" height="6.0" rx="0" fill="#e6e8ef"/>
<rect x="939.0" y="450.0" width="6.0" height="6.0" rx="0" fill="#e6e8ef"/>
<rect x="945.0" y="450.0" width="6.0" height="6.0" rx="0" fill="#e6e8ef"/>
<rect x="951.0" y="450.0" width="6.0" height="6.0" rx="0" fill="#e6e8ef"/>
<rect x="957.0" y="450.0" width="6.0" height="6.0" rx="0" fill="#e6e8ef"/>
<rect x="963.0" y="450.0" width="6.0" height="6.0" rx="0" fill="#e6e8ef"/>
<rect x="969.0" y="450.0" width="6.0" height="6.0" rx="0" fill="#e6e8ef"/>
<rect x="975.0" y="450.0" width="6.0" height="6.0" rx="0" fill="#e6e8ef"/>
<rect x="981.0" y="450.0" width="6.0" height="6.0" rx="0" fill="#e6e8ef"/>
<rect x="987.0" y="450.0" width="6.0" height="6.0" rx="0" fill="#e6e8ef"/>
<rect x="993.0" y="450.0" width="6.0" height="6.0" rx="0" fill="#e6e8ef"/>
<rect x="999.0" y="450.0" width="6.0" height="6.0" rx="0" fill="#e6e8ef"/>
<rect x="1005.0" y="450.0" width="6.0" height="6.0" rx="0" fill="#e6e8ef"/>
<rect x="1011.0" y="450.0" width="6.0" height="6.0" rx="0" fill="#e6e8ef"/>
<rect x="1017.0" y="450.0" width="6.0" height="6.0" rx="0" fill="#e6e8ef"/>
<rect x="1023.0" y="450.0" width="6.0" height="6.0" rx="0" fill="#e6e8ef"/>
<rect x="1029.0" y="450.0" width="6.0" height="6.0" rx="0" fill="#e6e8ef"/>
<rect x="1035.0" y="450.0" width="6.0" height="6.0" rx="0" fill="#e6e8ef"/>
<rect x="1041.0" y="450.0" width="6.0" height="6.0" rx="0" fill="#e6e8ef"/>
<rect x="963.0" y="468.0" width="6.0" height="6.0" rx="0" fill="#2e4670"/>
<rect x="969.0" y="468.0" width="6.0" height="6.0" rx="0" fill="#2e4670"/>
<rect x="975.0" y="468.0" width="6.0" height="6.0" rx="0" fill="#2e4670"/>
<rect x="981.0" y="468.0" width="6.0" height="6.0" rx="0" fill="#2e4670"/>
<rect x="987.0" y="468.0" width="6.0" height="6.0" rx="0" fill="#2e4670"/>
<rect x="993.0" y="468.0" width="6.0" height="6.0" rx="0" fill="#2e4670"/>
<rect x="999.0" y="468.0" width="6.0" height="6.0" rx="0" fill="#2e4670"/>
<rect x="1005.0" y="468.0" width="6.0" height="6.0" rx="0" fill="#2e4670"/>
<rect x="1011.0" y="468.0" width="6.0" height="6.0" rx="0" fill="#2e4670"/>
<rect x="963.0" y="474.0" width="6.0" height="6.0" rx="0" fill="#2e4670"/>
<rect x="969.0" y="474.0" width="6.0" height="6.0" rx="0" fill="#2e4670"/>
<rect x="975.0" y="474.0" width="6.0" height="6.0" rx="0" fill="#2e4670"/>
<rect x="981.0" y="474.0" width="6.0" height="6.0" rx="0" fill="#2e4670"/>
<rect x="987.0" y="474.0" width="6.0" height="6.0" rx="0" fill="#2e4670"/>
<rect x="993.0" y="474.0" width="6.0" height="6.0" rx="0" fill="#2e4670"/>
<rect x="999.0" y="474.0" width="6.0" height="6.0" rx="0" fill="#2e4670"/>
<rect x="1005.0" y="474.0" width="6.0" height="6.0" rx="0" fill="#2e4670"/>
<rect x="1011.0" y="474.0" width="6.0" height="6.0" rx="0" fill="#2e4670"/><text x="990.0" y="558.0" text-anchor="middle" font-family="Plus Jakarta Sans" font-size="24" fill="#8a93a6">190px</text><rect x="1145" y="348.0" width="140" height="144.0" rx="30.8" fill="#141b2c"/><rect x="1205.0" y="388.0" width="4.0" height="4.0" rx="0" fill="#60a5fa"/>
<rect x="1209.0" y="388.0" width="4.0" height="4.0" rx="0" fill="#60a5fa"/>
<rect x="1213.0" y="388.0" width="4.0" height="4.0" rx="0" fill="#60a5fa"/>
<rect x="1217.0" y="388.0" width="4.0" height="4.0" rx="0" fill="#60a5fa"/>
<rect x="1197.0" y="392.0" width="4.0" height="4.0" rx="0" fill="#60a5fa"/>
<rect x="1201.0" y="392.0" width="4.0" height="4.0" rx="0" fill="#60a5fa"/>
<rect x="1205.0" y="392.0" width="4.0" height="4.0" rx="0" fill="#60a5fa"/>
<rect x="1209.0" y="392.0" width="4.0" height="4.0" rx="0" fill="#60a5fa"/>
<rect x="1213.0" y="392.0" width="4.0" height="4.0" rx="0" fill="#60a5fa"/>
<rect x="1217.0" y="392.0" width="4.0" height="4.0" rx="0" fill="#60a5fa"/>
<rect x="1221.0" y="392.0" width="4.0" height="4.0" rx="0" fill="#60a5fa"/>
<rect x="1225.0" y="392.0" width="4.0" height="4.0" rx="0" fill="#60a5fa"/>
<rect x="1193.0" y="396.0" width="4.0" height="4.0" rx="0" fill="#60a5fa"/>
<rect x="1197.0" y="396.0" width="4.0" height="4.0" rx="0" fill="#60a5fa"/>
<rect x="1201.0" y="396.0" width="4.0" height="4.0" rx="0" fill="#60a5fa"/>
<rect x="1205.0" y="396.0" width="4.0" height="4.0" rx="0" fill="#60a5fa"/>
<rect x="1209.0" y="396.0" width="4.0" height="4.0" rx="0" fill="#60a5fa"/>
<rect x="1213.0" y="396.0" width="4.0" height="4.0" rx="0" fill="#60a5fa"/>
<rect x="1217.0" y="396.0" width="4.0" height="4.0" rx="0" fill="#60a5fa"/>
<rect x="1221.0" y="396.0" width="4.0" height="4.0" rx="0" fill="#60a5fa"/>
<rect x="1225.0" y="396.0" width="4.0" height="4.0" rx="0" fill="#60a5fa"/>
<rect x="1229.0" y="396.0" width="4.0" height="4.0" rx="0" fill="#60a5fa"/>
<rect x="1193.0" y="400.0" width="4.0" height="4.0" rx="0" fill="#60a5fa"/>
<rect x="1197.0" y="400.0" width="4.0" height="4.0" rx="0" fill="#60a5fa"/>
<rect x="1201.0" y="400.0" width="4.0" height="4.0" rx="0" fill="#60a5fa"/>
<rect x="1205.0" y="400.0" width="4.0" height="4.0" rx="0" fill="#60a5fa"/>
<rect x="1209.0" y="400.0" width="4.0" height="4.0" rx="0" fill="#60a5fa"/>
<rect x="1213.0" y="400.0" width="4.0" height="4.0" rx="0" fill="#60a5fa"/>
<rect x="1217.0" y="400.0" width="4.0" height="4.0" rx="0" fill="#60a5fa"/>
<rect x="1221.0" y="400.0" width="4.0" height="4.0" rx="0" fill="#60a5fa"/>
<rect x="1225.0" y="400.0" width="4.0" height="4.0" rx="0" fill="#60a5fa"/>
<rect x="1229.0" y="400.0" width="4.0" height="4.0" rx="0" fill="#60a5fa"/>
<rect x="1193.0" y="404.0" width="4.0" height="4.0" rx="0" fill="#60a5fa"/>
<rect x="1197.0" y="404.0" width="4.0" height="4.0" rx="0" fill="#60a5fa"/>
<rect x="1201.0" y="404.0" width="4.0" height="4.0" rx="0" fill="#60a5fa"/>
<rect x="1205.0" y="404.0" width="4.0" height="4.0" rx="0" fill="#60a5fa"/>
<rect x="1209.0" y="404.0" width="4.0" height="4.0" rx="0" fill="#60a5fa"/>
<rect x="1213.0" y="404.0" width="4.0" height="4.0" rx="0" fill="#60a5fa"/>
<rect x="1217.0" y="404.0" width="4.0" height="4.0" rx="0" fill="#60a5fa"/>
<rect x="1221.0" y="404.0" width="4.0" height="4.0" rx="0" fill="#60a5fa"/>
<rect x="1225.0" y="404.0" width="4.0" height="4.0" rx="0" fill="#60a5fa"/>
<rect x="1229.0" y="404.0" width="4.0" height="4.0" rx="0" fill="#60a5fa"/>
<rect x="1193.0" y="408.0" width="4.0" height="4.0" rx="0" fill="#60a5fa"/>
<rect x="1197.0" y="408.0" width="4.0" height="4.0" rx="0" fill="#60a5fa"/>
<rect x="1201.0" y="408.0" width="4.0" height="4.0" rx="0" fill="#60a5fa"/>
<rect x="1205.0" y="408.0" width="4.0" height="4.0" rx="0" fill="#60a5fa"/>
<rect x="1209.0" y="408.0" width="4.0" height="4.0" rx="0" fill="#60a5fa"/>
<rect x="1213.0" y="408.0" width="4.0" height="4.0" rx="0" fill="#60a5fa"/>
<rect x="1217.0" y="408.0" width="4.0" height="4.0" rx="0" fill="#60a5fa"/>
<rect x="1221.0" y="408.0" width="4.0" height="4.0" rx="0" fill="#60a5fa"/>
<rect x="1225.0" y="408.0" width="4.0" height="4.0" rx="0" fill="#60a5fa"/>
<rect x="1229.0" y="408.0" width="4.0" height="4.0" rx="0" fill="#60a5fa"/>
<rect x="1193.0" y="412.0" width="4.0" height="4.0" rx="0" fill="#60a5fa"/>
<rect x="1197.0" y="412.0" width="4.0" height="4.0" rx="0" fill="#60a5fa"/>
<rect x="1201.0" y="412.0" width="4.0" height="4.0" rx="0" fill="#60a5fa"/>
<rect x="1205.0" y="412.0" width="4.0" height="4.0" rx="0" fill="#60a5fa"/>
<rect x="1209.0" y="412.0" width="4.0" height="4.0" rx="0" fill="#60a5fa"/>
<rect x="1213.0" y="412.0" width="4.0" height="4.0" rx="0" fill="#60a5fa"/>
<rect x="1217.0" y="412.0" width="4.0" height="4.0" rx="0" fill="#60a5fa"/>
<rect x="1221.0" y="412.0" width="4.0" height="4.0" rx="0" fill="#60a5fa"/>
<rect x="1225.0" y="412.0" width="4.0" height="4.0" rx="0" fill="#60a5fa"/>
<rect x="1229.0" y="412.0" width="4.0" height="4.0" rx="0" fill="#60a5fa"/>
<rect x="1193.0" y="416.0" width="4.0" height="4.0" rx="0" fill="#60a5fa"/>
<rect x="1197.0" y="416.0" width="4.0" height="4.0" rx="0" fill="#60a5fa"/>
<rect x="1201.0" y="416.0" width="4.0" height="4.0" rx="0" fill="#60a5fa"/>
<rect x="1205.0" y="416.0" width="4.0" height="4.0" rx="0" fill="#60a5fa"/>
<rect x="1209.0" y="416.0" width="4.0" height="4.0" rx="0" fill="#60a5fa"/>
<rect x="1213.0" y="416.0" width="4.0" height="4.0" rx="0" fill="#60a5fa"/>
<rect x="1217.0" y="416.0" width="4.0" height="4.0" rx="0" fill="#60a5fa"/>
<rect x="1221.0" y="416.0" width="4.0" height="4.0" rx="0" fill="#60a5fa"/>
<rect x="1225.0" y="416.0" width="4.0" height="4.0" rx="0" fill="#60a5fa"/>
<rect x="1229.0" y="416.0" width="4.0" height="4.0" rx="0" fill="#60a5fa"/>
<rect x="1197.0" y="420.0" width="4.0" height="4.0" rx="0" fill="#60a5fa"/>
<rect x="1201.0" y="420.0" width="4.0" height="4.0" rx="0" fill="#60a5fa"/>
<rect x="1205.0" y="420.0" width="4.0" height="4.0" rx="0" fill="#60a5fa"/>
<rect x="1209.0" y="420.0" width="4.0" height="4.0" rx="0" fill="#60a5fa"/>
<rect x="1213.0" y="420.0" width="4.0" height="4.0" rx="0" fill="#60a5fa"/>
<rect x="1217.0" y="420.0" width="4.0" height="4.0" rx="0" fill="#60a5fa"/>
<rect x="1221.0" y="420.0" width="4.0" height="4.0" rx="0" fill="#60a5fa"/>
<rect x="1225.0" y="420.0" width="4.0" height="4.0" rx="0" fill="#60a5fa"/>
<rect x="1205.0" y="424.0" width="4.0" height="4.0" rx="0" fill="#60a5fa"/>
<rect x="1209.0" y="424.0" width="4.0" height="4.0" rx="0" fill="#60a5fa"/>
<rect x="1213.0" y="424.0" width="4.0" height="4.0" rx="0" fill="#60a5fa"/>
<rect x="1217.0" y="424.0" width="4.0" height="4.0" rx="0" fill="#60a5fa"/>
<rect x="1177.0" y="432.0" width="4.0" height="4.0" rx="0" fill="#e6e8ef"/>
<rect x="1181.0" y="432.0" width="4.0" height="4.0" rx="0" fill="#e6e8ef"/>
<rect x="1185.0" y="432.0" width="4.0" height="4.0" rx="0" fill="#e6e8ef"/>
<rect x="1189.0" y="432.0" width="4.0" height="4.0" rx="0" fill="#e6e8ef"/>
<rect x="1193.0" y="432.0" width="4.0" height="4.0" rx="0" fill="#e6e8ef"/>
<rect x="1197.0" y="432.0" width="4.0" height="4.0" rx="0" fill="#e6e8ef"/>
<rect x="1201.0" y="432.0" width="4.0" height="4.0" rx="0" fill="#e6e8ef"/>
<rect x="1205.0" y="432.0" width="4.0" height="4.0" rx="0" fill="#e6e8ef"/>
<rect x="1209.0" y="432.0" width="4.0" height="4.0" rx="0" fill="#e6e8ef"/>
<rect x="1213.0" y="432.0" width="4.0" height="4.0" rx="0" fill="#e6e8ef"/>
<rect x="1217.0" y="432.0" width="4.0" height="4.0" rx="0" fill="#e6e8ef"/>
<rect x="1221.0" y="432.0" width="4.0" height="4.0" rx="0" fill="#e6e8ef"/>
<rect x="1225.0" y="432.0" width="4.0" height="4.0" rx="0" fill="#e6e8ef"/>
<rect x="1229.0" y="432.0" width="4.0" height="4.0" rx="0" fill="#e6e8ef"/>
<rect x="1233.0" y="432.0" width="4.0" height="4.0" rx="0" fill="#e6e8ef"/>
<rect x="1237.0" y="432.0" width="4.0" height="4.0" rx="0" fill="#e6e8ef"/>
<rect x="1241.0" y="432.0" width="4.0" height="4.0" rx="0" fill="#e6e8ef"/>
<rect x="1245.0" y="432.0" width="4.0" height="4.0" rx="0" fill="#e6e8ef"/>
<rect x="1249.0" y="432.0" width="4.0" height="4.0" rx="0" fill="#e6e8ef"/>
<rect x="1177.0" y="436.0" width="4.0" height="4.0" rx="0" fill="#e6e8ef"/>
<rect x="1181.0" y="436.0" width="4.0" height="4.0" rx="0" fill="#e6e8ef"/>
<rect x="1185.0" y="436.0" width="4.0" height="4.0" rx="0" fill="#e6e8ef"/>
<rect x="1189.0" y="436.0" width="4.0" height="4.0" rx="0" fill="#e6e8ef"/>
<rect x="1193.0" y="436.0" width="4.0" height="4.0" rx="0" fill="#e6e8ef"/>
<rect x="1197.0" y="436.0" width="4.0" height="4.0" rx="0" fill="#e6e8ef"/>
<rect x="1201.0" y="436.0" width="4.0" height="4.0" rx="0" fill="#e6e8ef"/>
<rect x="1205.0" y="436.0" width="4.0" height="4.0" rx="0" fill="#e6e8ef"/>
<rect x="1209.0" y="436.0" width="4.0" height="4.0" rx="0" fill="#e6e8ef"/>
<rect x="1213.0" y="436.0" width="4.0" height="4.0" rx="0" fill="#e6e8ef"/>
<rect x="1217.0" y="436.0" width="4.0" height="4.0" rx="0" fill="#e6e8ef"/>
<rect x="1221.0" y="436.0" width="4.0" height="4.0" rx="0" fill="#e6e8ef"/>
<rect x="1225.0" y="436.0" width="4.0" height="4.0" rx="0" fill="#e6e8ef"/>
<rect x="1229.0" y="436.0" width="4.0" height="4.0" rx="0" fill="#e6e8ef"/>
<rect x="1233.0" y="436.0" width="4.0" height="4.0" rx="0" fill="#e6e8ef"/>
<rect x="1237.0" y="436.0" width="4.0" height="4.0" rx="0" fill="#e6e8ef"/>
<rect x="1241.0" y="436.0" width="4.0" height="4.0" rx="0" fill="#e6e8ef"/>
<rect x="1245.0" y="436.0" width="4.0" height="4.0" rx="0" fill="#e6e8ef"/>
<rect x="1249.0" y="436.0" width="4.0" height="4.0" rx="0" fill="#e6e8ef"/>
<rect x="1177.0" y="440.0" width="4.0" height="4.0" rx="0" fill="#e6e8ef"/>
<rect x="1181.0" y="440.0" width="4.0" height="4.0" rx="0" fill="#e6e8ef"/>
<rect x="1185.0" y="440.0" width="4.0" height="4.0" rx="0" fill="#e6e8ef"/>
<rect x="1189.0" y="440.0" width="4.0" height="4.0" rx="0" fill="#e6e8ef"/>
<rect x="1193.0" y="440.0" width="4.0" height="4.0" rx="0" fill="#e6e8ef"/>
<rect x="1197.0" y="440.0" width="4.0" height="4.0" rx="0" fill="#e6e8ef"/>
<rect x="1201.0" y="440.0" width="4.0" height="4.0" rx="0" fill="#e6e8ef"/>
<rect x="1205.0" y="440.0" width="4.0" height="4.0" rx="0" fill="#e6e8ef"/>
<rect x="1209.0" y="440.0" width="4.0" height="4.0" rx="0" fill="#e6e8ef"/>
<rect x="1213.0" y="440.0" width="4.0" height="4.0" rx="0" fill="#e6e8ef"/>
<rect x="1217.0" y="440.0" width="4.0" height="4.0" rx="0" fill="#e6e8ef"/>
<rect x="1221.0" y="440.0" width="4.0" height="4.0" rx="0" fill="#e6e8ef"/>
<rect x="1225.0" y="440.0" width="4.0" height="4.0" rx="0" fill="#e6e8ef"/>
<rect x="1229.0" y="440.0" width="4.0" height="4.0" rx="0" fill="#e6e8ef"/>
<rect x="1233.0" y="440.0" width="4.0" height="4.0" rx="0" fill="#e6e8ef"/>
<rect x="1237.0" y="440.0" width="4.0" height="4.0" rx="0" fill="#e6e8ef"/>
<rect x="1241.0" y="440.0" width="4.0" height="4.0" rx="0" fill="#e6e8ef"/>
<rect x="1245.0" y="440.0" width="4.0" height="4.0" rx="0" fill="#e6e8ef"/>
<rect x="1249.0" y="440.0" width="4.0" height="4.0" rx="0" fill="#e6e8ef"/>
<rect x="1197.0" y="452.0" width="4.0" height="4.0" rx="0" fill="#2e4670"/>
<rect x="1201.0" y="452.0" width="4.0" height="4.0" rx="0" fill="#2e4670"/>
<rect x="1205.0" y="452.0" width="4.0" height="4.0" rx="0" fill="#2e4670"/>
<rect x="1209.0" y="452.0" width="4.0" height="4.0" rx="0" fill="#2e4670"/>
<rect x="1213.0" y="452.0" width="4.0" height="4.0" rx="0" fill="#2e4670"/>
<rect x="1217.0" y="452.0" width="4.0" height="4.0" rx="0" fill="#2e4670"/>
<rect x="1221.0" y="452.0" width="4.0" height="4.0" rx="0" fill="#2e4670"/>
<rect x="1225.0" y="452.0" width="4.0" height="4.0" rx="0" fill="#2e4670"/>
<rect x="1229.0" y="452.0" width="4.0" height="4.0" rx="0" fill="#2e4670"/>
<rect x="1197.0" y="456.0" width="4.0" height="4.0" rx="0" fill="#2e4670"/>
<rect x="1201.0" y="456.0" width="4.0" height="4.0" rx="0" fill="#2e4670"/>
<rect x="1205.0" y="456.0" width="4.0" height="4.0" rx="0" fill="#2e4670"/>
<rect x="1209.0" y="456.0" width="4.0" height="4.0" rx="0" fill="#2e4670"/>
<rect x="1213.0" y="456.0" width="4.0" height="4.0" rx="0" fill="#2e4670"/>
<rect x="1217.0" y="456.0" width="4.0" height="4.0" rx="0" fill="#2e4670"/>
<rect x="1221.0" y="456.0" width="4.0" height="4.0" rx="0" fill="#2e4670"/>
<rect x="1225.0" y="456.0" width="4.0" height="4.0" rx="0" fill="#2e4670"/>
<rect x="1229.0" y="456.0" width="4.0" height="4.0" rx="0" fill="#2e4670"/><text x="1215.0" y="532.0" text-anchor="middle" font-family="Plus Jakarta Sans" font-size="24" fill="#8a93a6">140px</text>
</svg>
