<svg xmlns="http://www.w3.org/2000/svg" width="1440" height="840" viewBox="0 0 1440 840">
<rect width="1440" height="840" fill="#0f1420"/>
<rect x="120.0" y="120.0" width="1200" height="600" rx="18" fill="#141b2c" stroke="#263454" stroke-width="2"/>
<circle cx="148.0" cy="146.0" r="7" fill="#3a4660"/><circle cx="172.0" cy="146.0" r="7" fill="#3a4660"/><circle cx="196.0" cy="146.0" r="7" fill="#3a4660"/>
<text x="156.0" y="216.0" font-family="JetBrains Mono" font-size="22" fill="#8a93a6">$ nagi</text>
<text x="156.0" y="686.0" font-family="JetBrains Mono, Source Han Sans JP, Source Han Sans" font-size="20" fill="#8a93a6">受信箱 0　今日 0　予定 0　あとで 0</text>
<text x="1284.0" y="686.0" text-anchor="end" font-family="JetBrains Mono, Source Han Sans JP, Source Han Sans" font-size="20" fill="#8a93a6">ローカル</text>
<text x="156.0" y="646.0" font-family="JetBrains Mono, Source Han Sans JP, Source Han Sans" font-size="20" fill="#e6e8ef">Enter で始める　<tspan fill="#8a93a6">q で終了</tspan></text><rect x="1154.0" y="270.0" width="14.0" height="14.0" rx="0" fill="#e6e8ef"/>
<rect x="1168.0" y="270.0" width="14.0" height="14.0" rx="0" fill="#e6e8ef"/>
<rect x="1182.0" y="270.0" width="14.0" height="14.0" rx="0" fill="#e6e8ef"/>
<rect x="1154.0" y="284.0" width="14.0" height="14.0" rx="0" fill="#e6e8ef"/>
<rect x="1168.0" y="284.0" width="14.0" height="14.0" rx="0" fill="#e6e8ef"/>
<rect x="1182.0" y="284.0" width="14.0" height="14.0" rx="0" fill="#e6e8ef"/>
<rect x="342.0" y="298.0" width="14.0" height="14.0" rx="0" fill="#60a5fa"/>
<rect x="356.0" y="298.0" width="14.0" height="14.0" rx="0" fill="#60a5fa"/>
<rect x="370.0" y="298.0" width="14.0" height="14.0" rx="0" fill="#60a5fa"/>
<rect x="384.0" y="298.0" width="14.0" height="14.0" rx="0" fill="#60a5fa"/>
<rect x="1154.0" y="298.0" width="14.0" height="14.0" rx="0" fill="#e6e8ef"/>
<rect x="1168.0" y="298.0" width="14.0" height="14.0" rx="0" fill="#e6e8ef"/>
<rect x="1182.0" y="298.0" width="14.0" height="14.0" rx="0" fill="#e6e8ef"/>
<rect x="314.0" y="312.0" width="14.0" height="14.0" rx="0" fill="#60a5fa"/>
<rect x="328.0" y="312.0" width="14.0" height="14.0" rx="0" fill="#60a5fa"/>
<rect x="342.0" y="312.0" width="14.0" height="14.0" rx="0" fill="#60a5fa"/>
<rect x="356.0" y="312.0" width="14.0" height="14.0" rx="0" fill="#60a5fa"/>
<rect x="370.0" y="312.0" width="14.0" height="14.0" rx="0" fill="#60a5fa"/>
<rect x="384.0" y="312.0" width="14.0" height="14.0" rx="0" fill="#60a5fa"/>
<rect x="398.0" y="312.0" width="14.0" height="14.0" rx="0" fill="#60a5fa"/>
<rect x="412.0" y="312.0" width="14.0" height="14.0" rx="0" fill="#60a5fa"/>
<rect x="300.0" y="326.0" width="14.0" height="14.0" rx="0" fill="#60a5fa"/>
<rect x="314.0" y="326.0" width="14.0" height="14.0" rx="0" fill="#60a5fa"/>
<rect x="328.0" y="326.0" width="14.0" height="14.0" rx="0" fill="#60a5fa"/>
<rect x="342.0" y="326.0" width="14.0" height="14.0" rx="0" fill="#60a5fa"/>
<rect x="356.0" y="326.0" width="14.0" height="14.0" rx="0" fill="#60a5fa"/>
<rect x="370.0" y="326.0" width="14.0" height="14.0" rx="0" fill="#60a5fa"/>
<rect x="384.0" y="326.0" width="14.0" height="14.0" rx="0" fill="#60a5fa"/>
<rect x="398.0" y="326.0" width="14.0" height="14.0" rx="0" fill="#60a5fa"/>
<rect x="412.0" y="326.0" width="14.0" height="14.0" rx="0" fill="#60a5fa"/>
<rect x="426.0" y="326.0" width="14.0" height="14.0" rx="0" fill="#60a5fa"/>
<rect x="594.0" y="326.0" width="14.0" height="14.0" rx="0" fill="#e6e8ef"/>
<rect x="608.0" y="326.0" width="14.0" height="14.0" rx="0" fill="#e6e8ef"/>
<rect x="622.0" y="326.0" width="14.0" height="14.0" rx="0" fill="#e6e8ef"/>
<rect x="636.0" y="326.0" width="14.0" height="14.0" rx="0" fill="#e6e8ef"/>
<rect x="650.0" y="326.0" width="14.0" height="14.0" rx="0" fill="#e6e8ef"/>
<rect x="664.0" y="326.0" width="14.0" height="14.0" rx="0" fill="#e6e8ef"/>
<rect x="678.0" y="326.0" width="14.0" height="14.0" rx="0" fill="#e6e8ef"/>
<rect x="790.0" y="326.0" width="14.0" height="14.0" rx="0" fill="#e6e8ef"/>
<rect x="804.0" y="326.0" width="14.0" height="14.0" rx="0" fill="#e6e8ef"/>
<rect x="818.0" y="326.0" width="14.0" height="14.0" rx="0" fill="#e6e8ef"/>
<rect x="832.0" y="326.0" width="14.0" height="14.0" rx="0" fill="#e6e8ef"/>
<rect x="846.0" y="326.0" width="14.0" height="14.0" rx="0" fill="#e6e8ef"/>
<rect x="860.0" y="326.0" width="14.0" height="14.0" rx="0" fill="#e6e8ef"/>
<rect x="874.0" y="326.0" width="14.0" height="14.0" rx="0" fill="#e6e8ef"/>
<rect x="888.0" y="326.0" width="14.0" height="14.0" rx="0" fill="#e6e8ef"/>
<rect x="902.0" y="326.0" width="14.0" height="14.0" rx="0" fill="#e6e8ef"/>
<rect x="986.0" y="326.0" width="14.0" height="14.0" rx="0" fill="#e6e8ef"/>
<rect x="1000.0" y="326.0" width="14.0" height="14.0" rx="0" fill="#e6e8ef"/>
<rect x="1014.0" y="326.0" width="14.0" height="14.0" rx="0" fill="#e6e8ef"/>
<rect x="1028.0" y="326.0" width="14.0" height="14.0" rx="0" fill="#e6e8ef"/>
<rect x="1042.0" y="326.0" width="14.0" height="14.0" rx="0" fill="#e6e8ef"/>
<rect x="1056.0" y="326.0" width="14.0" height="14.0" rx="0" fill="#e6e8ef"/>
<rect x="1070.0" y="326.0" width="14.0" height="14.0" rx="0" fill="#e6e8ef"/>
<rect x="1084.0" y="326.0" width="14.0" height="14.0" rx="0" fill="#e6e8ef"/>
<rect x="1098.0" y="326.0" width="14.0" height="14.0" rx="0" fill="#e6e8ef"/>
<rect x="1154.0" y="326.0" width="14.0" height="14.0" rx="0" fill="#e6e8ef"/>
<rect x="1168.0" y="326.0" width="14.0" height="14.0" rx="0" fill="#e6e8ef"/>
<rect x="1182.0" y="326.0" width="14.0" height="14.0" rx="0" fill="#e6e8ef"/>
<rect x="300.0" y="340.0" width="14.0" height="14.0" rx="0" fill="#60a5fa"/>
<rect x="314.0" y="340.0" width="14.0" height="14.0" rx="0" fill="#60a5fa"/>
<rect x="328.0" y="340.0" width="14.0" height="14.0" rx="0" fill="#60a5fa"/>
<rect x="342.0" y="340.0" width="14.0" height="14.0" rx="0" fill="#60a5fa"/>
<rect x="356.0" y="340.0" width="14.0" height="14.0" rx="0" fill="#60a5fa"/>
<rect x="370.0" y="340.0" width="14.0" height="14.0" rx="0" fill="#60a5fa"/>
<rect x="384.0" y="340.0" width="14.0" height="14.0" rx="0" fill="#60a5fa"/>
<rect x="398.0" y="340.0" width="14.0" height="14.0" rx="0" fill="#60a5fa"/>
<rect x="412.0" y="340.0" width="14.0" height="14.0" rx="0" fill="#60a5fa"/>
<rect x="426.0" y="340.0" width="14.0" height="14.0" rx="0" fill="#60a5fa"/>
<rect x="580.0" y="340.0" width="14.0" height="14.0" rx="0" fill="#e6e8ef"/>
<rect x="594.0" y="340.0" width="14.0" height="14.0" rx="0" fill="#e6e8ef"/>
<rect x="608.0" y="340.0" width="14.0" height="14.0" rx="0" fill="#e6e8ef"/>
<rect x="622.0" y="340.0" width="14.0" height="14.0" rx="0" fill="#e6e8ef"/>
<rect x="636.0" y="340.0" width="14.0" height="14.0" rx="0" fill="#e6e8ef"/>
<rect x="650.0" y="340.0" width="14.0" height="14.0" rx="0" fill="#e6e8ef"/>
<rect x="664.0" y="340.0" width="14.0" height="14.0" rx="0" fill="#e6e8ef"/>
<rect x="678.0" y="340.0" width="14.0" height="14.0" rx="0" fill="#e6e8ef"/>
<rect x="692.0" y="340.0" width="14.0" height="14.0" rx="0" fill="#e6e8ef"/>
<rect x="776.0" y="340.0" width="14.0" height="14.0" rx="0" fill="#e6e8ef"/>
<rect x="790.0" y="340.0" width="14.0" height="14.0" rx="0" fill="#e6e8ef"/>
<rect x="804.0" y="340.0" width="14.0" height="14.0" rx="0" fill="#e6e8ef"/>
<rect x="818.0" y="340.0" width="14.0" height="14.0" rx="0" fill="#e6e8ef"/>
<rect x="832.0" y="340.0" width="14.0" height="14.0" rx="0" fill="#e6e8ef"/>
<rect x="846.0" y="340.0" width="14.0" height="14.0" rx="0" fill="#e6e8ef"/>
<rect x="860.0" y="340.0" width="14.0" height="14.0" rx="0" fill="#e6e8ef"/>
<rect x="874.0" y="340.0" width="14.0" height="14.0" rx="0" fill="#e6e8ef"/>
<rect x="888.0" y="340.0" width="14.0" height="14.0" rx="0" fill="#e6e8ef"/>
<rect x="902.0" y="340.0" width="14.0" height="14.0" rx="0" fill="#e6e8ef"/>
<rect x="972.0" y="340.0" width="14.0" height="14.0" rx="0" fill="#e6e8ef"/>
<rect x="986.0" y="340.0" width="14.0" height="14.0" rx="0" fill="#e6e8ef"/>
<rect x="1000.0" y="340.0" width="14.0" height="14.0" rx="0" fill="#e6e8ef"/>
<rect x="1014.0" y="340.0" width="14.0" height="14.0" rx="0" fill="#e6e8ef"/>
<rect x="1028.0" y="340.0" width="14.0" height="14.0" rx="0" fill="#e6e8ef"/>
<rect x="1042.0" y="340.0" width="14.0" height="14.0" rx="0" fill="#e6e8ef"/>
<rect x="1056.0" y="340.0" width="14.0" height="14.0" rx="0" fill="#e6e8ef"/>
<rect x="1070.0" y="340.0" width="14.0" height="14.0" rx="0" fill="#e6e8ef"/>
<rect x="1084.0" y="340.0" width="14.0" height="14.0" rx="0" fill="#e6e8ef"/>
<rect x="1098.0" y="340.0" width="14.0" height="14.0" rx="0" fill="#e6e8ef"/>
<rect x="1154.0" y="340.0" width="14.0" height="14.0" rx="0" fill="#e6e8ef"/>
<rect x="1168.0" y="340.0" width="14.0" height="14.0" rx="0" fill="#e6e8ef"/>
<rect x="1182.0" y="340.0" width="14.0" height="14.0" rx="0" fill="#e6e8ef"/>
<rect x="300.0" y="354.0" width="14.0" height="14.0" rx="0" fill="#60a5fa"/>
<rect x="314.0" y="354.0" width="14.0" height="14.0" rx="0" fill="#60a5fa"/>
<rect x="328.0" y="354.0" width="14.0" height="14.0" rx="0" fill="#60a5fa"/>
<rect x="342.0" y="354.0" width="14.0" height="14.0" rx="0" fill="#60a5fa"/>
<rect x="356.0" y="354.0" width="14.0" height="14.0" rx="0" fill="#60a5fa"/>
<rect x="370.0" y="354.0" width="14.0" height="14.0" rx="0" fill="#60a5fa"/>
<rect x="384.0" y="354.0" width="14.0" height="14.0" rx="0" fill="#60a5fa"/>
<rect x="398.0" y="354.0" width="14.0" height="14.0" rx="0" fill="#60a5fa"/>
<rect x="412.0" y="354.0" width="14.0" height="14.0" rx="0" fill="#60a5fa"/>
<rect x="426.0" y="354.0" width="14.0" height="14.0" rx="0" fill="#60a5fa"/>
<rect x="566.0" y="354.0" width="14.0" height="14.0" rx="0" fill="#e6e8ef"/>
<rect x="580.0" y="354.0" width="14.0" height="14.0" rx="0" fill="#e6e8ef"/>
<rect x="594.0" y="354.0" width="14.0" height="14.0" rx="0" fill="#e6e8ef"/>
<rect x="608.0" y="354.0" width="14.0" height="14.0" rx="0" fill="#e6e8ef"/>
<rect x="622.0" y="354.0" width="14.0" height="14.0" rx="0" fill="#e6e8ef"/>
<rect x="636.0" y="354.0" width="14.0" height="14.0" rx="0" fill="#e6e8ef"/>
<rect x="650.0" y="354.0" width="14.0" height="14.0" rx="0" fill="#e6e8ef"/>
<rect x="664.0" y="354.0" width="14.0" height="14.0" rx="0" fill="#e6e8ef"/>
<rect x="678.0" y="354.0" width="14.0" height="14.0" rx="0" fill="#e6e8ef"/>
<rect x="692.0" y="354.0" width="14.0" height="14.0" rx="0" fill="#e6e8ef"/>
<rect x="706.0" y="354.0" width="14.0" height="14.0" rx="0" fill="#e6e8ef"/>
<rect x="762.0" y="354.0" width="14.0" height="14.0" rx="0" fill="#e6e8ef"/>
<rect x="776.0" y="354.0" width="14.0" height="14.0" rx="0" fill="#e6e8ef"/>
<rect x="790.0" y="354.0" width="14.0" height="14.0" rx="0" fill="#e6e8ef"/>
<rect x="804.0" y="354.0" width="14.0" height="14.0" rx="0" fill="#e6e8ef"/>
<rect x="818.0" y="354.0" width="14.0" height="14.0" rx="0" fill="#e6e8ef"/>
<rect x="832.0" y="354.0" width="14.0" height="14.0" rx="0" fill="#e6e8ef"/>
<rect x="846.0" y="354.0" width="14.0" height="14.0" rx="0" fill="#e6e8ef"/>
<rect x="860.0" y="354.0" width="14.0" height="14.0" rx="0" fill="#e6e8ef"/>
<rect x="874.0" y="354.0" width="14.0" height="14.0" rx="0" fill="#e6e8ef"/>
<rect x="888.0" y="354.0" width="14.0" height="14.0" rx="0" fill="#e6e8ef"/>
<rect x="902.0" y="354.0" width="14.0" height="14.0" rx="0" fill="#e6e8ef"/>
<rect x="958.0" y="354.0" width="14.0" height="14.0" rx="0" fill="#e6e8ef"/>
<rect x="972.0" y="354.0" width="14.0" height="14.0" rx="0" fill="#e6e8ef"/>
<rect x="986.0" y="354.0" width="14.0" height="14.0" rx="0" fill="#e6e8ef"/>
<rect x="1000.0" y="354.0" width="14.0" height="14.0" rx="0" fill="#e6e8ef"/>
<rect x="1014.0" y="354.0" width="14.0" height="14.0" rx="0" fill="#e6e8ef"/>
<rect x="1028.0" y="354.0" width="14.0" height="14.0" rx="0" fill="#e6e8ef"/>
<rect x="1042.0" y="354.0" width="14.0" height="14.0" rx="0" fill="#e6e8ef"/>
<rect x="1056.0" y="354.0" width="14.0" height="14.0" rx="0" fill="#e6e8ef"/>
<rect x="1070.0" y="354.0" width="14.0" height="14.0" rx="0" fill="#e6e8ef"/>
<rect x="1084.0" y="354.0" width="14.0" height="14.0" rx="0" fill="#e6e8ef"/>
<rect x="1098.0" y="354.0" width="14.0" height="14.0" rx="0" fill="#e6e8ef"/>
<rect x="1154.0" y="354.0" width="14.0" height="14.0" rx="0" fill="#e6e8ef"/>
<rect x="1168.0" y="354.0" width="14.0" height="14.0" rx="0" fill="#e6e8ef"/>
<rect x="1182.0" y="354.0" width="14.0" height="14.0" rx="0" fill="#e6e8ef"/>
<rect x="300.0" y="368.0" width="14.0" height="14.0" rx="0" fill="#60a5fa"/>
<rect x="314.0" y="368.0" width="14.0" height="14.0" rx="0" fill="#60a5fa"/>
<rect x="328.0" y="368.0" width="14.0" height="14.0" rx="0" fill="#60a5fa"/>
<rect x="342.0" y="368.0" width="14.0" height="14.0" rx="0" fill="#60a5fa"/>
<rect x="356.0" y="368.0" width="14.0" height="14.0" rx="0" fill="#60a5fa"/>
<rect x="370.0" y="368.0" width="14.0" height="14.0" rx="0" fill="#60a5fa"/>
<rect x="384.0" y="368.0" width="14.0" height="14.0" rx="0" fill="#60a5fa"/>
<rect x="398.0" y="368.0" width="14.0" height="14.0" rx="0" fill="#60a5fa"/>
<rect x="412.0" y="368.0" width="14.0" height="14.0" rx="0" fill="#60a5fa"/>
<rect x="426.0" y="368.0" width="14.0" height="14.0" rx="0" fill="#60a5fa"/>
<rect x="566.0" y="368.0" width="14.0" height="14.0" rx="0" fill="#e6e8ef"/>
<rect x="580.0" y="368.0" width="14.0" height="14.0" rx="0" fill="#e6e8ef"/>
<rect x="594.0" y="368.0" width="14.0" height="14.0" rx="0" fill="#e6e8ef"/>
<rect x="608.0" y="368.0" width="14.0" height="14.0" rx="0" fill="#e6e8ef"/>
<rect x="664.0" y="368.0" width="14.0" height="14.0" rx="0" fill="#e6e8ef"/>
<rect x="678.0" y="368.0" width="14.0" height="14.0" rx="0" fill="#e6e8ef"/>
<rect x="692.0" y="368.0" width="14.0" height="14.0" rx="0" fill="#e6e8ef"/>
<rect x="706.0" y="368.0" width="14.0" height="14.0" rx="0" fill="#e6e8ef"/>
<rect x="762.0" y="368.0" width="14.0" height="14.0" rx="0" fill="#e6e8ef"/>
<rect x="776.0" y="368.0" width="14.0" height="14.0" rx="0" fill="#e6e8ef"/>
<rect x="790.0" y="368.0" width="14.0" height="14.0" rx="0" fill="#e6e8ef"/>
<rect x="804.0" y="368.0" width="14.0" height="14.0" rx="0" fill="#e6e8ef"/>
<rect x="860.0" y="368.0" width="14.0" height="14.0" rx="0" fill="#e6e8ef"/>
<rect x="874.0" y="368.0" width="14.0" height="14.0" rx="0" fill="#e6e8ef"/>
<rect x="888.0" y="368.0" width="14.0" height="14.0" rx="0" fill="#e6e8ef"/>
<rect x="902.0" y="368.0" width="14.0" height="14.0" rx="0" fill="#e6e8ef"/>
<rect x="958.0" y="368.0" width="14.0" height="14.0" rx="0" fill="#e6e8ef"/>
<rect x="972.0" y="368.0" width="14.0" height="14.0" rx="0" fill="#e6e8ef"/>
<rect x="986.0" y="368.0" width="14.0" height="14.0" rx="0" fill="#e6e8ef"/>
<rect x="1000.0" y="368.0" width="14.0" height="14.0" rx="0" fill="#e6e8ef"/>
<rect x="1056.0" y="368.0" width="14.0" height="14.0" rx="0" fill="#e6e8ef"/>
<rect x="1070.0" y="368.0" width="14.0" height="14.0" rx="0" fill="#e6e8ef"/>
<rect x="1084.0" y="368.0" width="14.0" height="14.0" rx="0" fill="#e6e8ef"/>
<rect x="1098.0" y="368.0" width="14.0" height="14.0" rx="0" fill="#e6e8ef"/>
<rect x="1154.0" y="368.0" width="14.0" height="14.0" rx="0" fill="#e6e8ef"/>
<rect x="1168.0" y="368.0" width="14.0" height="14.0" rx="0" fill="#e6e8ef"/>
<rect x="1182.0" y="368.0" width="14.0" height="14.0" rx="0" fill="#e6e8ef"/>
<rect x="300.0" y="382.0" width="14.0" height="14.0" rx="0" fill="#60a5fa"/>
<rect x="314.0" y="382.0" width="14.0" height="14.0" rx="0" fill="#60a5fa"/>
<rect x="328.0" y="382.0" width="14.0" height="14.0" rx="0" fill="#60a5fa"/>
<rect x="342.0" y="382.0" width="14.0" height="14.0" rx="0" fill="#60a5fa"/>
<rect x="356.0" y="382.0" width="14.0" height="14.0" rx="0" fill="#60a5fa"/>
<rect x="370.0" y="382.0" width="14.0" height="14.0" rx="0" fill="#60a5fa"/>
<rect x="384.0" y="382.0" width="14.0" height="14.0" rx="0" fill="#60a5fa"/>
<rect x="398.0" y="382.0" width="14.0" height="14.0" rx="0" fill="#60a5fa"/>
<rect x="412.0" y="382.0" width="14.0" height="14.0" rx="0" fill="#60a5fa"/>
<rect x="426.0" y="382.0" width="14.0" height="14.0" rx="0" fill="#60a5fa"/>
<rect x="566.0" y="382.0" width="14.0" height="14.0" rx="0" fill="#e6e8ef"/>
<rect x="580.0" y="382.0" width="14.0" height="14.0" rx="0" fill="#e6e8ef"/>
<rect x="594.0" y="382.0" width="14.0" height="14.0" rx="0" fill="#e6e8ef"/>
<rect x="678.0" y="382.0" width="14.0" height="14.0" rx="0" fill="#e6e8ef"/>
<rect x="692.0" y="382.0" width="14.0" height="14.0" rx="0" fill="#e6e8ef"/>
<rect x="706.0" y="382.0" width="14.0" height="14.0" rx="0" fill="#e6e8ef"/>
<rect x="762.0" y="382.0" width="14.0" height="14.0" rx="0" fill="#e6e8ef"/>
<rect x="776.0" y="382.0" width="14.0" height="14.0" rx="0" fill="#e6e8ef"/>
<rect x="790.0" y="382.0" width="14.0" height="14.0" rx="0" fill="#e6e8ef"/>
<rect x="874.0" y="382.0" width="14.0" height="14.0" rx="0" fill="#e6e8ef"/>
<rect x="888.0" y="382.0" width="14.0" height="14.0" rx="0" fill="#e6e8ef"/>
<rect x="902.0" y="382.0" width="14.0" height="14.0" rx="0" fill="#e6e8ef"/>
<rect x="958.0" y="382.0" width="14.0" height="14.0" rx="0" fill="#e6e8ef"/>
<rect x="972.0" y="382.0" width="14.0" height="14.0" rx="0" fill="#e6e8ef"/>
<rect x="986.0" y="382.0" width="14.0" height="14.0" rx="0" fill="#e6e8ef"/>
<rect x="1070.0" y="382.0" width="14.0" height="14.0" rx="0" fill="#e6e8ef"/>
<rect x="1084.0" y="382.0" width="14.0" height="14.0" rx="0" fill="#e6e8ef"/>
<rect x="1098.0" y="382.0" width="14.0" height="14.0" rx="0" fill="#e6e8ef"/>
<rect x="1154.0" y="382.0" width="14.0" height="14.0" rx="0" fill="#e6e8ef"/>
<rect x="1168.0" y="382.0" width="14.0" height="14.0" rx="0" fill="#e6e8ef"/>
<rect x="1182.0" y="382.0" width="14.0" height="14.0" rx="0" fill="#e6e8ef"/>
<rect x="300.0" y="396.0" width="14.0" height="14.0" rx="0" fill="#60a5fa"/>
<rect x="314.0" y="396.0" width="14.0" height="14.0" rx="0" fill="#60a5fa"/>
<rect x="328.0" y="396.0" width="14.0" height="14.0" rx="0" fill="#60a5fa"/>
<rect x="342.0" y="396.0" width="14.0" height="14.0" rx="0" fill="#60a5fa"/>
<rect x="356.0" y="396.0" width="14.0" height="14.0" rx="0" fill="#60a5fa"/>
<rect x="370.0" y="396.0" width="14.0" height="14.0" rx="0" fill="#60a5fa"/>
<rect x="384.0" y="396.0" width="14.0" height="14.0" rx="0" fill="#60a5fa"/>
<rect x="398.0" y="396.0" width="14.0" height="14.0" rx="0" fill="#60a5fa"/>
<rect x="412.0" y="396.0" width="14.0" height="14.0" rx="0" fill="#60a5fa"/>
<rect x="426.0" y="396.0" width="14.0" height="14.0" rx="0" fill="#60a5fa"/>
<rect x="566.0" y="396.0" width="14.0" height="14.0" rx="0" fill="#e6e8ef"/>
<rect x="580.0" y="396.0" width="14.0" height="14.0" rx="0" fill="#e6e8ef"/>
<rect x="594.0" y="396.0" width="14.0" height="14.0" rx="0" fill="#e6e8ef"/>
<rect x="678.0" y="396.0" width="14.0" height="14.0" rx="0" fill="#e6e8ef"/>
<rect x="692.0" y="396.0" width="14.0" height="14.0" rx="0" fill="#e6e8ef"/>
<rect x="706.0" y="396.0" width="14.0" height="14.0" rx="0" fill="#e6e8ef"/>
<rect x="762.0" y="396.0" width="14.0" height="14.0" rx="0" fill="#e6e8ef"/>
<rect x="776.0" y="396.0" width="14.0" height="14.0" rx="0" fill="#e6e8ef"/>
<rect x="790.0" y="396.0" width="14.0" height="14.0" rx="0" fill="#e6e8ef"/>
<rect x="874.0" y="396.0" width="14.0" height="14.0" rx="0" fill="#e6e8ef"/>
<rect x="888.0" y="396.0" width="14.0" height="14.0" rx="0" fill="#e6e8ef"/>
<rect x="902.0" y="396.0" width="14.0" height="14.0" rx="0" fill="#e6e8ef"/>
<rect x="958.0" y="396.0" width="14.0" height="14.0" rx="0" fill="#e6e8ef"/>
<rect x="972.0" y="396.0" width="14.0" height="14.0" rx="0" fill="#e6e8ef"/>
<rect x="986.0" y="396.0" width="14.0" height="14.0" rx="0" fill="#e6e8ef"/>
<rect x="1070.0" y="396.0" width="14.0" height="14.0" rx="0" fill="#e6e8ef"/>
<rect x="1084.0" y="396.0" width="14.0" height="14.0" rx="0" fill="#e6e8ef"/>
<rect x="1098.0" y="396.0" width="14.0" height="14.0" rx="0" fill="#e6e8ef"/>
<rect x="1154.0" y="396.0" width="14.0" height="14.0" rx="0" fill="#e6e8ef"/>
<rect x="1168.0" y="396.0" width="14.0" height="14.0" rx="0" fill="#e6e8ef"/>
<rect x="1182.0" y="396.0" width="14.0" height="14.0" rx="0" fill="#e6e8ef"/>
<rect x="314.0" y="410.0" width="14.0" height="14.0" rx="0" fill="#60a5fa"/>
<rect x="328.0" y="410.0" width="14.0" height="14.0" rx="0" fill="#60a5fa"/>
<rect x="342.0" y="410.0" width="14.0" height="14.0" rx="0" fill="#60a5fa"/>
<rect x="356.0" y="410.0" width="14.0" height="14.0" rx="0" fill="#60a5fa"/>
<rect x="370.0" y="410.0" width="14.0" height="14.0" rx="0" fill="#60a5fa"/>
<rect x="384.0" y="410.0" width="14.0" height="14.0" rx="0" fill="#60a5fa"/>
<rect x="398.0" y="410.0" width="14.0" height="14.0" rx="0" fill="#60a5fa"/>
<rect x="412.0" y="410.0" width="14.0" height="14.0" rx="0" fill="#60a5fa"/>
<rect x="566.0" y="410.0" width="14.0" height="14.0" rx="0" fill="#e6e8ef"/>
<rect x="580.0" y="410.0" width="14.0" height="14.0" rx="0" fill="#e6e8ef"/>
<rect x="594.0" y="410.0" width="14.0" height="14.0" rx="0" fill="#e6e8ef"/>
<rect x="678.0" y="410.0" width="14.0" height="14.0" rx="0" fill="#e6e8ef"/>
<rect x="692.0" y="410.0" width="14.0" height="14.0" rx="0" fill="#e6e8ef"/>
<rect x="706.0" y="410.0" width="14.0" height="14.0" rx="0" fill="#e6e8ef"/>
<rect x="762.0" y="410.0" width="14.0" height="14.0" rx="0" fill="#e6e8ef"/>
<rect x="776.0" y="410.0" width="14.0" height="14.0" rx="0" fill="#e6e8ef"/>
<rect x="790.0" y="410.0" width="14.0" height="14.0" rx="0" fill="#e6e8ef"/>
<rect x="874.0" y="410.0" width="14.0" height="14.0" rx="0" fill="#e6e8ef"/>
<rect x="888.0" y="410.0" width="14.0" height="14.0" rx="0" fill="#e6e8ef"/>
<rect x="902.0" y="410.0" width="14.0" height="14.0" rx="0" fill="#e6e8ef"/>
<rect x="958.0" y="410.0" width="14.0" height="14.0" rx="0" fill="#e6e8ef"/>
<rect x="972.0" y="410.0" width="14.0" height="14.0" rx="0" fill="#e6e8ef"/>
<rect x="986.0" y="410.0" width="14.0" height="14.0" rx="0" fill="#e6e8ef"/>
<rect x="1070.0" y="410.0" width="14.0" height="14.0" rx="0" fill="#e6e8ef"/>
<rect x="1084.0" y="410.0" width="14.0" height="14.0" rx="0" fill="#e6e8ef"/>
<rect x="1098.0" y="410.0" width="14.0" height="14.0" rx="0" fill="#e6e8ef"/>
<rect x="1154.0" y="410.0" width="14.0" height="14.0" rx="0" fill="#e6e8ef"/>
<rect x="1168.0" y="410.0" width="14.0" height="14.0" rx="0" fill="#e6e8ef"/>
<rect x="1182.0" y="410.0" width="14.0" height="14.0" rx="0" fill="#e6e8ef"/>
<rect x="342.0" y="424.0" width="14.0" height="14.0" rx="0" fill="#60a5fa"/>
<rect x="356.0" y="424.0" width="14.0" height="14.0" rx="0" fill="#60a5fa"/>
<rect x="370.0" y="424.0" width="14.0" height="14.0" rx="0" fill="#60a5fa"/>
<rect x="384.0" y="424.0" width="14.0" height="14.0" rx="0" fill="#60a5fa"/>
<rect x="566.0" y="424.0" width="14.0" height="14.0" rx="0" fill="#e6e8ef"/>
<rect x="580.0" y="424.0" width="14.0" height="14.0" rx="0" fill="#e6e8ef"/>
<rect x="594.0" y="424.0" width="14.0" height="14.0" rx="0" fill="#e6e8ef"/>
<rect x="678.0" y="424.0" width="14.0" height="14.0" rx="0" fill="#e6e8ef"/>
<rect x="692.0" y="424.0" width="14.0" height="14.0" rx="0" fill="#e6e8ef"/>
<rect x="706.0" y="424.0" width="14.0" height="14.0" rx="0" fill="#e6e8ef"/>
<rect x="762.0" y="424.0" width="14.0" height="14.0" rx="0" fill="#e6e8ef"/>
<rect x="776.0" y="424.0" width="14.0" height="14.0" rx="0" fill="#e6e8ef"/>
<rect x="790.0" y="424.0" width="14.0" height="14.0" rx="0" fill="#e6e8ef"/>
<rect x="874.0" y="424.0" width="14.0" height="14.0" rx="0" fill="#e6e8ef"/>
<rect x="888.0" y="424.0" width="14.0" height="14.0" rx="0" fill="#e6e8ef"/>
<rect x="902.0" y="424.0" width="14.0" height="14.0" rx="0" fill="#e6e8ef"/>
<rect x="958.0" y="424.0" width="14.0" height="14.0" rx="0" fill="#e6e8ef"/>
<rect x="972.0" y="424.0" width="14.0" height="14.0" rx="0" fill="#e6e8ef"/>
<rect x="986.0" y="424.0" width="14.0" height="14.0" rx="0" fill="#e6e8ef"/>
<rect x="1070.0" y="424.0" width="14.0" height="14.0" rx="0" fill="#e6e8ef"/>
<rect x="1084.0" y="424.0" width="14.0" height="14.0" rx="0" fill="#e6e8ef"/>
<rect x="1098.0" y="424.0" width="14.0" height="14.0" rx="0" fill="#e6e8ef"/>
<rect x="1154.0" y="424.0" width="14.0" height="14.0" rx="0" fill="#e6e8ef"/>
<rect x="1168.0" y="424.0" width="14.0" height="14.0" rx="0" fill="#e6e8ef"/>
<rect x="1182.0" y="424.0" width="14.0" height="14.0" rx="0" fill="#e6e8ef"/>
<rect x="566.0" y="438.0" width="14.0" height="14.0" rx="0" fill="#e6e8ef"/>
<rect x="580.0" y="438.0" width="14.0" height="14.0" rx="0" fill="#e6e8ef"/>
<rect x="594.0" y="438.0" width="14.0" height="14.0" rx="0" fill="#e6e8ef"/>
<rect x="678.0" y="438.0" width="14.0" height="14.0" rx="0" fill="#e6e8ef"/>
<rect x="692.0" y="438.0" width="14.0" height="14.0" rx="0" fill="#e6e8ef"/>
<rect x="706.0" y="438.0" width="14.0" height="14.0" rx="0" fill="#e6e8ef"/>
<rect x="762.0" y="438.0" width="14.0" height="14.0" rx="0" fill="#e6e8ef"/>
<rect x="776.0" y="438.0" width="14.0" height="14.0" rx="0" fill="#e6e8ef"/>
<rect x="790.0" y="438.0" width="14.0" height="14.0" rx="0" fill="#e6e8ef"/>
<rect x="804.0" y="438.0" width="14.0" height="14.0" rx="0" fill="#e6e8ef"/>
<rect x="860.0" y="438.0" width="14.0" height="14.0" rx="0" fill="#e6e8ef"/>
<rect x="874.0" y="438.0" width="14.0" height="14.0" rx="0" fill="#e6e8ef"/>
<rect x="888.0" y="438.0" width="14.0" height="14.0" rx="0" fill="#e6e8ef"/>
<rect x="902.0" y="438.0" width="14.0" height="14.0" rx="0" fill="#e6e8ef"/>
<rect x="958.0" y="438.0" width="14.0" height="14.0" rx="0" fill="#e6e8ef"/>
<rect x="972.0" y="438.0" width="14.0" height="14.0" rx="0" fill="#e6e8ef"/>
<rect x="986.0" y="438.0" width="14.0" height="14.0" rx="0" fill="#e6e8ef"/>
<rect x="1000.0" y="438.0" width="14.0" height="14.0" rx="0" fill="#e6e8ef"/>
<rect x="1056.0" y="438.0" width="14.0" height="14.0" rx="0" fill="#e6e8ef"/>
<rect x="1070.0" y="438.0" width="14.0" height="14.0" rx="0" fill="#e6e8ef"/>
<rect x="1084.0" y="438.0" width="14.0" height="14.0" rx="0" fill="#e6e8ef"/>
<rect x="1098.0" y="438.0" width="14.0" height="14.0" rx="0" fill="#e6e8ef"/>
<rect x="1154.0" y="438.0" width="14.0" height="14.0" rx="0" fill="#e6e8ef"/>
<rect x="1168.0" y="438.0" width="14.0" height="14.0" rx="0" fill="#e6e8ef"/>
<rect x="1182.0" y="438.0" width="14.0" height="14.0" rx="0" fill="#e6e8ef"/>
<rect x="244.0" y="452.0" width="14.0" height="14.0" rx="0" fill="#e6e8ef"/>
<rect x="258.0" y="452.0" width="14.0" height="14.0" rx="0" fill="#e6e8ef"/>
<rect x="272.0" y="452.0" width="14.0" height="14.0" rx="0" fill="#e6e8ef"/>
<rect x="286.0" y="452.0" width="14.0" height="14.0" rx="0" fill="#e6e8ef"/>
<rect x="300.0" y="452.0" width="14.0" height="14.0" rx="0" fill="#e6e8ef"/>
<rect x="314.0" y="452.0" width="14.0" height="14.0" rx="0" fill="#e6e8ef"/>
<rect x="328.0" y="452.0" width="14.0" height="14.0" rx="0" fill="#e6e8ef"/>
<rect x="342.0" y="452.0" width="14.0" height="14.0" rx="0" fill="#e6e8ef"/>
<rect x="356.0" y="452.0" width="14.0" height="14.0" rx="0" fill="#e6e8ef"/>
<rect x="370.0" y="452.0" width="14.0" height="14.0" rx="0" fill="#e6e8ef"/>
<rect x="384.0" y="452.0" width="14.0" height="14.0" rx="0" fill="#e6e8ef"/>
<rect x="398.0" y="452.0" width="14.0" height="14.0" rx="0" fill="#e6e8ef"/>
<rect x="412.0" y="452.0" width="14.0" height="14.0" rx="0" fill="#e6e8ef"/>
<rect x="426.0" y="452.0" width="14.0" height="14.0" rx="0" fill="#e6e8ef"/>
<rect x="440.0" y="452.0" width="14.0" height="14.0" rx="0" fill="#e6e8ef"/>
<rect x="454.0" y="452.0" width="14.0" height="14.0" rx="0" fill="#e6e8ef"/>
<rect x="468.0" y="452.0" width="14.0" height="14.0" rx="0" fill="#e6e8ef"/>
<rect x="482.0" y="452.0" width="14.0" height="14.0" rx="0" fill="#e6e8ef"/>
<rect x="496.0" y="452.0" width="14.0" height="14.0" rx="0" fill="#e6e8ef"/>
<rect x="566.0" y="452.0" width="14.0" height="14.0" rx="0" fill="#e6e8ef"/>
<rect x="580.0" y="452.0" width="14.0" height="14.0" rx="0" fill="#e6e8ef"/>
<rect x="594.0" y="452.0" width="14.0" height="14.0" rx="0" fill="#e6e8ef"/>
<rect x="678.0" y="452.0" width="14.0" height="14.0" rx="0" fill="#e6e8ef"/>
<rect x="692.0" y="452.0" width="14.0" height="14.0" rx="0" fill="#e6e8ef"/>
<rect x="706.0" y="452.0" width="14.0" height="14.0" rx="0" fill="#e6e8ef"/>
<rect x="762.0" y="452.0" width="14.0" height="14.0" rx="0" fill="#e6e8ef"/>
<rect x="776.0" y="452.0" width="14.0" height="14.0" rx="0" fill="#e6e8ef"/>
<rect x="790.0" y="452.0" width="14.0" height="14.0" rx="0" fill="#e6e8ef"/>
<rect x="804.0" y="452.0" width="14.0" height="14.0" rx="0" fill="#e6e8ef"/>
<rect x="818.0" y="452.0" width="14.0" height="14.0" rx="0" fill="#e6e8ef"/>
<rect x="832.0" y="452.0" width="14.0" height="14.0" rx="0" fill="#e6e8ef"/>
<rect x="846.0" y="452.0" width="14.0" height="14.0" rx="0" fill="#e6e8ef"/>
<rect x="860.0" y="452.0" width="14.0" height="14.0" rx="0" fill="#e6e8ef"/>
<rect x="874.0" y="452.0" width="14.0" height="14.0" rx="0" fill="#e6e8ef"/>
<rect x="888.0" y="452.0" width="14.0" height="14.0" rx="0" fill="#e6e8ef"/>
<rect x="902.0" y="452.0" width="14.0" height="14.0" rx="0" fill="#e6e8ef"/>
<rect x="958.0" y="452.0" width="14.0" height="14.0" rx="0" fill="#e6e8ef"/>
<rect x="972.0" y="452.0" width="14.0" height="14.0" rx="0" fill="#e6e8ef"/>
<rect x="986.0" y="452.0" width="14.0" height="14.0" rx="0" fill="#e6e8ef"/>
<rect x="1000.0" y="452.0" width="14.0" height="14.0" rx="0" fill="#e6e8ef"/>
<rect x="1014.0" y="452.0" width="14.0" height="14.0" rx="0" fill="#e6e8ef"/>
<rect x="1028.0" y="452.0" width="14.0" height="14.0" rx="0" fill="#e6e8ef"/>
<rect x="1042.0" y="452.0" width="14.0" height="14.0" rx="0" fill="#e6e8ef"/>
<rect x="1056.0" y="452.0" width="14.0" height="14.0" rx="0" fill="#e6e8ef"/>
<rect x="1070.0" y="452.0" width="14.0" height="14.0" rx="0" fill="#e6e8ef"/>
<rect x="1084.0" y="452.0" width="14.0" height="14.0" rx="0" fill="#e6e8ef"/>
<rect x="1098.0" y="452.0" width="14.0" height="14.0" rx="0" fill="#e6e8ef"/>
<rect x="1154.0" y="452.0" width="14.0" height="14.0" rx="0" fill="#e6e8ef"/>
<rect x="1168.0" y="452.0" width="14.0" height="14.0" rx="0" fill="#e6e8ef"/>
<rect x="1182.0" y="452.0" width="14.0" height="14.0" rx="0" fill="#e6e8ef"/>
<rect x="244.0" y="466.0" width="14.0" height="14.0" rx="0" fill="#e6e8ef"/>
<rect x="258.0" y="466.0" width="14.0" height="14.0" rx="0" fill="#e6e8ef"/>
<rect x="272.0" y="466.0" width="14.0" height="14.0" rx="0" fill="#e6e8ef"/>
<rect x="286.0" y="466.0" width="14.0" height="14.0" rx="0" fill="#e6e8ef"/>
<rect x="300.0" y="466.0" width="14.0" height="14.0" rx="0" fill="#e6e8ef"/>
<rect x="314.0" y="466.0" width="14.0" height="14.0" rx="0" fill="#e6e8ef"/>
<rect x="328.0" y="466.0" width="14.0" height="14.0" rx="0" fill="#e6e8ef"/>
<rect x="342.0" y="466.0" width="14.0" height="14.0" rx="0" fill="#e6e8ef"/>
<rect x="356.0" y="466.0" width="14.0" height="14.0" rx="0" fill="#e6e8ef"/>
<rect x="370.0" y="466.0" width="14.0" height="14.0" rx="0" fill="#e6e8ef"/>
<rect x="384.0" y="466.0" width="14.0" height="14.0" rx="0" fill="#e6e8ef"/>
<rect x="398.0" y="466.0" width="14.0" height="14.0" rx="0" fill="#e6e8ef"/>
<rect x="412.0" y="466.0" width="14.0" height="14.0" rx="0" fill="#e6e8ef"/>
<rect x="426.0" y="466.0" width="14.0" height="14.0" rx="0" fill="#e6e8ef"/>
<rect x="440.0" y="466.0" width="14.0" height="14.0" rx="0" fill="#e6e8ef"/>
<rect x="454.0" y="466.0" width="14.0" height="14.0" rx="0" fill="#e6e8ef"/>
<rect x="468.0" y="466.0" width="14.0" height="14.0" rx="0" fill="#e6e8ef"/>
<rect x="482.0" y="466.0" width="14.0" height="14.0" rx="0" fill="#e6e8ef"/>
<rect x="496.0" y="466.0" width="14.0" height="14.0" rx="0" fill="#e6e8ef"/>
<rect x="566.0" y="466.0" width="14.0" height="14.0" rx="0" fill="#e6e8ef"/>
<rect x="580.0" y="466.0" width="14.0" height="14.0" rx="0" fill="#e6e8ef"/>
<rect x="594.0" y="466.0" width="14.0" height="14.0" rx="0" fill="#e6e8ef"/>
<rect x="678.0" y="466.0" width="14.0" height="14.0" rx="0" fill="#e6e8ef"/>
<rect x="692.0" y="466.0" width="14.0" height="14.0" rx="0" fill="#e6e8ef"/>
<rect x="706.0" y="466.0" width="14.0" height="14.0" rx="0" fill="#e6e8ef"/>
<rect x="776.0" y="466.0" width="14.0" height="14.0" rx="0" fill="#e6e8ef"/>
<rect x="790.0" y="466.0" width="14.0" height="14.0" rx="0" fill="#e6e8ef"/>
<rect x="804.0" y="466.0" width="14.0" height="14.0" rx="0" fill="#e6e8ef"/>
<rect x="818.0" y="466.0" width="14.0" height="14.0" rx="0" fill="#e6e8ef"/>
<rect x="832.0" y="466.0" width="14.0" height="14.0" rx="0" fill="#e6e8ef"/>
<rect x="846.0" y="466.0" width="14.0" height="14.0" rx="0" fill="#e6e8ef"/>
<rect x="860.0" y="466.0" width="14.0" height="14.0" rx="0" fill="#e6e8ef"/>
<rect x="874.0" y="466.0" width="14.0" height="14.0" rx="0" fill="#e6e8ef"/>
<rect x="888.0" y="466.0" width="14.0" height="14.0" rx="0" fill="#e6e8ef"/>
<rect x="902.0" y="466.0" width="14.0" height="14.0" rx="0" fill="#e6e8ef"/>
<rect x="972.0" y="466.0" width="14.0" height="14.0" rx="0" fill="#e6e8ef"/>
<rect x="986.0" y="466.0" width="14.0" height="14.0" rx="0" fill="#e6e8ef"/>
<rect x="1000.0" y="466.0" width="14.0" height="14.0" rx="0" fill="#e6e8ef"/>
<rect x="1014.0" y="466.0" width="14.0" height="14.0" rx="0" fill="#e6e8ef"/>
<rect x="1028.0" y="466.0" width="14.0" height="14.0" rx="0" fill="#e6e8ef"/>
<rect x="1042.0" y="466.0" width="14.0" height="14.0" rx="0" fill="#e6e8ef"/>
<rect x="1056.0" y="466.0" width="14.0" height="14.0" rx="0" fill="#e6e8ef"/>
<rect x="1070.0" y="466.0" width="14.0" height="14.0" rx="0" fill="#e6e8ef"/>
<rect x="1084.0" y="466.0" width="14.0" height="14.0" rx="0" fill="#e6e8ef"/>
<rect x="1098.0" y="466.0" width="14.0" height="14.0" rx="0" fill="#e6e8ef"/>
<rect x="1154.0" y="466.0" width="14.0" height="14.0" rx="0" fill="#e6e8ef"/>
<rect x="1168.0" y="466.0" width="14.0" height="14.0" rx="0" fill="#e6e8ef"/>
<rect x="1182.0" y="466.0" width="14.0" height="14.0" rx="0" fill="#e6e8ef"/>
<rect x="244.0" y="480.0" width="14.0" height="14.0" rx="0" fill="#e6e8ef"/>
<rect x="258.0" y="480.0" width="14.0" height="14.0" rx="0" fill="#e6e8ef"/>
<rect x="272.0" y="480.0" width="14.0" height="14.0" rx="0" fill="#e6e8ef"/>
<rect x="286.0" y="480.0" width="14.0" height="14.0" rx="0" fill="#e6e8ef"/>
<rect x="300.0" y="480.0" width="14.0" height="14.0" rx="0" fill="#e6e8ef"/>
<rect x="314.0" y="480.0" width="14.0" height="14.0" rx="0" fill="#e6e8ef"/>
<rect x="328.0" y="480.0" width="14.0" height="14.0" rx="0" fill="#e6e8ef"/>
<rect x="342.0" y="480.0" width="14.0" height="14.0" rx="0" fill="#e6e8ef"/>
<rect x="356.0" y="480.0" width="14.0" height="14.0" rx="0" fill="#e6e8ef"/>
<rect x="370.0" y="480.0" width="14.0" height="14.0" rx="0" fill="#e6e8ef"/>
<rect x="384.0" y="480.0" width="14.0" height="14.0" rx="0" fill="#e6e8ef"/>
<rect x="398.0" y="480.0" width="14.0" height="14.0" rx="0" fill="#e6e8ef"/>
<rect x="412.0" y="480.0" width="14.0" height="14.0" rx="0" fill="#e6e8ef"/>
<rect x="426.0" y="480.0" width="14.0" height="14.0" rx="0" fill="#e6e8ef"/>
<rect x="440.0" y="480.0" width="14.0" height="14.0" rx="0" fill="#e6e8ef"/>
<rect x="454.0" y="480.0" width="14.0" height="14.0" rx="0" fill="#e6e8ef"/>
<rect x="468.0" y="480.0" width="14.0" height="14.0" rx="0" fill="#e6e8ef"/>
<rect x="482.0" y="480.0" width="14.0" height="14.0" rx="0" fill="#e6e8ef"/>
<rect x="496.0" y="480.0" width="14.0" height="14.0" rx="0" fill="#e6e8ef"/>
<rect x="566.0" y="480.0" width="14.0" height="14.0" rx="0" fill="#e6e8ef"/>
<rect x="580.0" y="480.0" width="14.0" height="14.0" rx="0" fill="#e6e8ef"/>
<rect x="594.0" y="480.0" width="14.0" height="14.0" rx="0" fill="#e6e8ef"/>
<rect x="678.0" y="480.0" width="14.0" height="14.0" rx="0" fill="#e6e8ef"/>
<rect x="692.0" y="480.0" width="14.0" height="14.0" rx="0" fill="#e6e8ef"/>
<rect x="706.0" y="480.0" width="14.0" height="14.0" rx="0" fill="#e6e8ef"/>
<rect x="790.0" y="480.0" width="14.0" height="14.0" rx="0" fill="#e6e8ef"/>
<rect x="804.0" y="480.0" width="14.0" height="14.0" rx="0" fill="#e6e8ef"/>
<rect x="818.0" y="480.0" width="14.0" height="14.0" rx="0" fill="#e6e8ef"/>
<rect x="832.0" y="480.0" width="14.0" height="14.0" rx="0" fill="#e6e8ef"/>
<rect x="846.0" y="480.0" width="14.0" height="14.0" rx="0" fill="#e6e8ef"/>
<rect x="860.0" y="480.0" width="14.0" height="14.0" rx="0" fill="#e6e8ef"/>
<rect x="874.0" y="480.0" width="14.0" height="14.0" rx="0" fill="#e6e8ef"/>
<rect x="888.0" y="480.0" width="14.0" height="14.0" rx="0" fill="#e6e8ef"/>
<rect x="902.0" y="480.0" width="14.0" height="14.0" rx="0" fill="#e6e8ef"/>
<rect x="986.0" y="480.0" width="14.0" height="14.0" rx="0" fill="#e6e8ef"/>
<rect x="1000.0" y="480.0" width="14.0" height="14.0" rx="0" fill="#e6e8ef"/>
<rect x="1014.0" y="480.0" width="14.0" height="14.0" rx="0" fill="#e6e8ef"/>
<rect x="1028.0" y="480.0" width="14.0" height="14.0" rx="0" fill="#e6e8ef"/>
<rect x="1042.0" y="480.0" width="14.0" height="14.0" rx="0" fill="#e6e8ef"/>
<rect x="1056.0" y="480.0" width="14.0" height="14.0" rx="0" fill="#e6e8ef"/>
<rect x="1070.0" y="480.0" width="14.0" height="14.0" rx="0" fill="#e6e8ef"/>
<rect x="1084.0" y="480.0" width="14.0" height="14.0" rx="0" fill="#e6e8ef"/>
<rect x="1098.0" y="480.0" width="14.0" height="14.0" rx="0" fill="#e6e8ef"/>
<rect x="1154.0" y="480.0" width="14.0" height="14.0" rx="0" fill="#e6e8ef"/>
<rect x="1168.0" y="480.0" width="14.0" height="14.0" rx="0" fill="#e6e8ef"/>
<rect x="1182.0" y="480.0" width="14.0" height="14.0" rx="0" fill="#e6e8ef"/>
<rect x="1070.0" y="494.0" width="14.0" height="14.0" rx="0" fill="#e6e8ef"/>
<rect x="1084.0" y="494.0" width="14.0" height="14.0" rx="0" fill="#e6e8ef"/>
<rect x="1098.0" y="494.0" width="14.0" height="14.0" rx="0" fill="#e6e8ef"/>
<rect x="958.0" y="508.0" width="14.0" height="14.0" rx="0" fill="#e6e8ef"/>
<rect x="972.0" y="508.0" width="14.0" height="14.0" rx="0" fill="#e6e8ef"/>
<rect x="986.0" y="508.0" width="14.0" height="14.0" rx="0" fill="#e6e8ef"/>
<rect x="1070.0" y="508.0" width="14.0" height="14.0" rx="0" fill="#e6e8ef"/>
<rect x="1084.0" y="508.0" width="14.0" height="14.0" rx="0" fill="#e6e8ef"/>
<rect x="1098.0" y="508.0" width="14.0" height="14.0" rx="0" fill="#e6e8ef"/>
<rect x="314.0" y="522.0" width="14.0" height="14.0" rx="0" fill="#2e4670"/>
<rect x="328.0" y="522.0" width="14.0" height="14.0" rx="0" fill="#2e4670"/>
<rect x="342.0" y="522.0" width="14.0" height="14.0" rx="0" fill="#2e4670"/>
<rect x="356.0" y="522.0" width="14.0" height="14.0" rx="0" fill="#2e4670"/>
<rect x="370.0" y="522.0" width="14.0" height="14.0" rx="0" fill="#2e4670"/>
<rect x="384.0" y="522.0" width="14.0" height="14.0" rx="0" fill="#2e4670"/>
<rect x="398.0" y="522.0" width="14.0" height="14.0" rx="0" fill="#2e4670"/>
<rect x="412.0" y="522.0" width="14.0" height="14.0" rx="0" fill="#2e4670"/>
<rect x="426.0" y="522.0" width="14.0" height="14.0" rx="0" fill="#2e4670"/>
<rect x="958.0" y="522.0" width="14.0" height="14.0" rx="0" fill="#e6e8ef"/>
<rect x="972.0" y="522.0" width="14.0" height="14.0" rx="0" fill="#e6e8ef"/>
<rect x="986.0" y="522.0" width="14.0" height="14.0" rx="0" fill="#e6e8ef"/>
<rect x="1000.0" y="522.0" width="14.0" height="14.0" rx="0" fill="#e6e8ef"/>
<rect x="1014.0" y="522.0" width="14.0" height="14.0" rx="0" fill="#e6e8ef"/>
<rect x="1028.0" y="522.0" width="14.0" height="14.0" rx="0" fill="#e6e8ef"/>
<rect x="1042.0" y="522.0" width="14.0" height="14.0" rx="0" fill="#e6e8ef"/>
<rect x="1056.0" y="522.0" width="14.0" height="14.0" rx="0" fill="#e6e8ef"/>
<rect x="1070.0" y="522.0" width="14.0" height="14.0" rx="0" fill="#e6e8ef"/>
<rect x="1084.0" y="522.0" width="14.0" height="14.0" rx="0" fill="#e6e8ef"/>
<rect x="1098.0" y="522.0" width="14.0" height="14.0" rx="0" fill="#e6e8ef"/>
<rect x="314.0" y="536.0" width="14.0" height="14.0" rx="0" fill="#2e4670"/>
<rect x="328.0" y="536.0" width="14.0" height="14.0" rx="0" fill="#2e4670"/>
<rect x="342.0" y="536.0" width="14.0" height="14.0" rx="0" fill="#2e4670"/>
<rect x="356.0" y="536.0" width="14.0" height="14.0" rx="0" fill="#2e4670"/>
<rect x="370.0" y="536.0" width="14.0" height="14.0" rx="0" fill="#2e4670"/>
<rect x="384.0" y="536.0" width="14.0" height="14.0" rx="0" fill="#2e4670"/>
<rect x="398.0" y="536.0" width="14.0" height="14.0" rx="0" fill="#2e4670"/>
<rect x="412.0" y="536.0" width="14.0" height="14.0" rx="0" fill="#2e4670"/>
<rect x="426.0" y="536.0" width="14.0" height="14.0" rx="0" fill="#2e4670"/>
<rect x="972.0" y="536.0" width="14.0" height="14.0" rx="0" fill="#e6e8ef"/>
<rect x="986.0" y="536.0" width="14.0" height="14.0" rx="0" fill="#e6e8ef"/>
<rect x="1000.0" y="536.0" width="14.0" height="14.0" rx="0" fill="#e6e8ef"/>
<rect x="1014.0" y="536.0" width="14.0" height="14.0" rx="0" fill="#e6e8ef"/>
<rect x="1028.0" y="536.0" width="14.0" height="14.0" rx="0" fill="#e6e8ef"/>
<rect x="1042.0" y="536.0" width="14.0" height="14.0" rx="0" fill="#e6e8ef"/>
<rect x="1056.0" y="536.0" width="14.0" height="14.0" rx="0" fill="#e6e8ef"/>
<rect x="1070.0" y="536.0" width="14.0" height="14.0" rx="0" fill="#e6e8ef"/>
<rect x="1084.0" y="536.0" width="14.0" height="14.0" rx="0" fill="#e6e8ef"/>
</svg>
